<mxfile host="65bd71144e">
    <diagram id="qEfJnFLbfsY4PDl32sB-" name="Page-1">
        <mxGraphModel dx="1166" dy="950" grid="1" gridSize="10" guides="1" tooltips="1" connect="1" arrows="1" fold="1" page="1" pageScale="1" pageWidth="1100" pageHeight="850" math="0" shadow="0">
            <root>
                <mxCell id="0"/>
                <mxCell id="1" parent="0"/>
                <mxCell id="tj0ak_F37GdJPDLlOLxo-240" value="" style="shape=cube;whiteSpace=wrap;html=1;boundedLbl=1;backgroundOutline=1;darkOpacity=0.05;darkOpacity2=0.1;strokeColor=default;strokeWidth=3;fillColor=#67AB9F;size=11;fontStyle=1" parent="1" vertex="1">
                    <mxGeometry x="370.6600000000001" y="641.9399999999998" width="29.5" height="30.82" as="geometry"/>
                </mxCell>
                <mxCell id="tj0ak_F37GdJPDLlOLxo-241" value="" style="shape=cube;whiteSpace=wrap;html=1;boundedLbl=1;backgroundOutline=1;darkOpacity=0.05;darkOpacity2=0.1;strokeColor=default;strokeWidth=3;fillColor=#67AB9F;size=11;fontStyle=1" parent="1" vertex="1">
                    <mxGeometry x="351.0000000000001" y="641.9399999999998" width="29.5" height="30.82" as="geometry"/>
                </mxCell>
                <mxCell id="tj0ak_F37GdJPDLlOLxo-242" value="" style="shape=cube;whiteSpace=wrap;html=1;boundedLbl=1;backgroundOutline=1;darkOpacity=0.05;darkOpacity2=0.1;strokeColor=default;strokeWidth=3;fillColor=#67AB9F;size=11;fontStyle=1" parent="1" vertex="1">
                    <mxGeometry x="370.70000000000005" y="621.9299999999998" width="29.5" height="30.82" as="geometry"/>
                </mxCell>
                <mxCell id="tj0ak_F37GdJPDLlOLxo-243" value="" style="shape=cube;whiteSpace=wrap;html=1;boundedLbl=1;backgroundOutline=1;darkOpacity=0.05;darkOpacity2=0.1;strokeColor=default;strokeWidth=3;fillColor=#67AB9F;size=11;fontStyle=1" parent="1" vertex="1">
                    <mxGeometry x="351.0000000000001" y="621.9299999999998" width="29.5" height="30.82" as="geometry"/>
                </mxCell>
                <mxCell id="tj0ak_F37GdJPDLlOLxo-236" value="" style="shape=cube;whiteSpace=wrap;html=1;boundedLbl=1;backgroundOutline=1;darkOpacity=0.05;darkOpacity2=0.1;strokeColor=default;strokeWidth=3;fillColor=#67AB9F;size=11;fontStyle=1" parent="1" vertex="1">
                    <mxGeometry x="380.6600000000001" y="651.9399999999998" width="29.5" height="30.82" as="geometry"/>
                </mxCell>
                <mxCell id="tj0ak_F37GdJPDLlOLxo-237" value="" style="shape=cube;whiteSpace=wrap;html=1;boundedLbl=1;backgroundOutline=1;darkOpacity=0.05;darkOpacity2=0.1;strokeColor=default;strokeWidth=3;fillColor=#67AB9F;size=11;fontStyle=1" parent="1" vertex="1">
                    <mxGeometry x="361.0000000000001" y="651.9399999999998" width="29.5" height="30.82" as="geometry"/>
                </mxCell>
                <mxCell id="tj0ak_F37GdJPDLlOLxo-238" value="" style="shape=cube;whiteSpace=wrap;html=1;boundedLbl=1;backgroundOutline=1;darkOpacity=0.05;darkOpacity2=0.1;strokeColor=default;strokeWidth=3;fillColor=#67AB9F;size=11;fontStyle=1" parent="1" vertex="1">
                    <mxGeometry x="380.70000000000005" y="631.9299999999998" width="29.5" height="30.82" as="geometry"/>
                </mxCell>
                <mxCell id="tj0ak_F37GdJPDLlOLxo-239" value="" style="shape=cube;whiteSpace=wrap;html=1;boundedLbl=1;backgroundOutline=1;darkOpacity=0.05;darkOpacity2=0.1;strokeColor=default;strokeWidth=3;fillColor=#67AB9F;size=11;fontStyle=1" parent="1" vertex="1">
                    <mxGeometry x="361.0000000000001" y="631.9299999999998" width="29.5" height="30.82" as="geometry"/>
                </mxCell>
                <mxCell id="Dux-7o8v0CumdMAZQHKP-1" value="" style="shape=table;html=1;whiteSpace=wrap;startSize=0;container=1;collapsible=0;childLayout=tableLayout;strokeWidth=1;fontStyle=1" parent="1" vertex="1">
                    <mxGeometry x="358" y="303" width="440" height="228" as="geometry"/>
                </mxCell>
                <mxCell id="Dux-7o8v0CumdMAZQHKP-110" style="shape=partialRectangle;html=1;whiteSpace=wrap;collapsible=0;dropTarget=0;pointerEvents=0;fillColor=none;top=0;left=0;bottom=0;right=0;points=[[0,0.5],[1,0.5]];portConstraint=eastwest;strokeWidth=1;fontStyle=1" parent="Dux-7o8v0CumdMAZQHKP-1" vertex="1">
                    <mxGeometry width="440" height="29" as="geometry"/>
                </mxCell>
                <mxCell id="Dux-7o8v0CumdMAZQHKP-111" value="0" style="shape=partialRectangle;html=1;whiteSpace=wrap;connectable=0;fillColor=#CCFF99;top=0;left=0;bottom=0;right=0;overflow=hidden;pointerEvents=1;strokeWidth=1;strokeColor=#CCFF99;fontStyle=1" parent="Dux-7o8v0CumdMAZQHKP-110" vertex="1">
                    <mxGeometry width="29" height="29" as="geometry">
                        <mxRectangle width="29" height="29" as="alternateBounds"/>
                    </mxGeometry>
                </mxCell>
                <mxCell id="Dux-7o8v0CumdMAZQHKP-112" value="1" style="shape=partialRectangle;html=1;whiteSpace=wrap;connectable=0;fillColor=#CCFF99;top=0;left=0;bottom=0;right=0;overflow=hidden;pointerEvents=1;strokeWidth=1;fontStyle=1" parent="Dux-7o8v0CumdMAZQHKP-110" vertex="1">
                    <mxGeometry x="29" width="26" height="29" as="geometry">
                        <mxRectangle width="26" height="29" as="alternateBounds"/>
                    </mxGeometry>
                </mxCell>
                <mxCell id="Dux-7o8v0CumdMAZQHKP-113" value="2" style="shape=partialRectangle;html=1;whiteSpace=wrap;connectable=0;fillColor=#CCFF99;top=0;left=0;bottom=0;right=0;overflow=hidden;pointerEvents=1;strokeWidth=1;fontStyle=1" parent="Dux-7o8v0CumdMAZQHKP-110" vertex="1">
                    <mxGeometry x="55" width="27" height="29" as="geometry">
                        <mxRectangle width="27" height="29" as="alternateBounds"/>
                    </mxGeometry>
                </mxCell>
                <mxCell id="Dux-7o8v0CumdMAZQHKP-114" value="3" style="shape=partialRectangle;html=1;whiteSpace=wrap;connectable=0;fillColor=#CCFF99;top=0;left=0;bottom=0;right=0;overflow=hidden;pointerEvents=1;strokeWidth=1;fontStyle=1" parent="Dux-7o8v0CumdMAZQHKP-110" vertex="1">
                    <mxGeometry x="82" width="29" height="29" as="geometry">
                        <mxRectangle width="29" height="29" as="alternateBounds"/>
                    </mxGeometry>
                </mxCell>
                <mxCell id="Dux-7o8v0CumdMAZQHKP-115" value="4" style="shape=partialRectangle;html=1;whiteSpace=wrap;connectable=0;fillColor=#CCFF99;top=0;left=0;bottom=0;right=0;overflow=hidden;pointerEvents=1;strokeWidth=1;fontStyle=1" parent="Dux-7o8v0CumdMAZQHKP-110" vertex="1">
                    <mxGeometry x="111" width="27" height="29" as="geometry">
                        <mxRectangle width="27" height="29" as="alternateBounds"/>
                    </mxGeometry>
                </mxCell>
                <mxCell id="Dux-7o8v0CumdMAZQHKP-116" value="5" style="shape=partialRectangle;html=1;whiteSpace=wrap;connectable=0;fillColor=#CCFF99;top=0;left=0;bottom=0;right=0;overflow=hidden;pointerEvents=1;strokeWidth=1;fontStyle=1" parent="Dux-7o8v0CumdMAZQHKP-110" vertex="1">
                    <mxGeometry x="138" width="27" height="29" as="geometry">
                        <mxRectangle width="27" height="29" as="alternateBounds"/>
                    </mxGeometry>
                </mxCell>
                <mxCell id="Dux-7o8v0CumdMAZQHKP-117" value="6" style="shape=partialRectangle;html=1;whiteSpace=wrap;connectable=0;fillColor=#CCFF99;top=0;left=0;bottom=0;right=0;overflow=hidden;pointerEvents=1;strokeWidth=1;fontStyle=1" parent="Dux-7o8v0CumdMAZQHKP-110" vertex="1">
                    <mxGeometry x="165" width="26" height="29" as="geometry">
                        <mxRectangle width="26" height="29" as="alternateBounds"/>
                    </mxGeometry>
                </mxCell>
                <mxCell id="Dux-7o8v0CumdMAZQHKP-118" value="7" style="shape=partialRectangle;html=1;whiteSpace=wrap;connectable=0;fillColor=#CCFF99;top=0;left=0;bottom=0;right=0;overflow=hidden;pointerEvents=1;strokeWidth=1;fontStyle=1" parent="Dux-7o8v0CumdMAZQHKP-110" vertex="1">
                    <mxGeometry x="191" width="29" height="29" as="geometry">
                        <mxRectangle width="29" height="29" as="alternateBounds"/>
                    </mxGeometry>
                </mxCell>
                <mxCell id="Dux-7o8v0CumdMAZQHKP-119" value="8" style="shape=partialRectangle;html=1;whiteSpace=wrap;connectable=0;fillColor=#FFB366;top=0;left=0;bottom=0;right=0;overflow=hidden;pointerEvents=1;strokeWidth=1;fontStyle=1" parent="Dux-7o8v0CumdMAZQHKP-110" vertex="1">
                    <mxGeometry x="220" width="29" height="29" as="geometry">
                        <mxRectangle width="29" height="29" as="alternateBounds"/>
                    </mxGeometry>
                </mxCell>
                <mxCell id="Dux-7o8v0CumdMAZQHKP-120" value="9" style="shape=partialRectangle;html=1;whiteSpace=wrap;connectable=0;fillColor=#FFB366;top=0;left=0;bottom=0;right=0;overflow=hidden;pointerEvents=1;strokeWidth=1;fontStyle=1" parent="Dux-7o8v0CumdMAZQHKP-110" vertex="1">
                    <mxGeometry x="249" width="26" height="29" as="geometry">
                        <mxRectangle width="26" height="29" as="alternateBounds"/>
                    </mxGeometry>
                </mxCell>
                <mxCell id="Dux-7o8v0CumdMAZQHKP-121" value="10" style="shape=partialRectangle;html=1;whiteSpace=wrap;connectable=0;fillColor=#FFB366;top=0;left=0;bottom=0;right=0;overflow=hidden;pointerEvents=1;strokeWidth=1;fontStyle=1" parent="Dux-7o8v0CumdMAZQHKP-110" vertex="1">
                    <mxGeometry x="275" width="27" height="29" as="geometry">
                        <mxRectangle width="27" height="29" as="alternateBounds"/>
                    </mxGeometry>
                </mxCell>
                <mxCell id="Dux-7o8v0CumdMAZQHKP-122" value="11" style="shape=partialRectangle;html=1;whiteSpace=wrap;connectable=0;fillColor=#FFB366;top=0;left=0;bottom=0;right=0;overflow=hidden;pointerEvents=1;strokeWidth=1;fontStyle=1" parent="Dux-7o8v0CumdMAZQHKP-110" vertex="1">
                    <mxGeometry x="302" width="29" height="29" as="geometry">
                        <mxRectangle width="29" height="29" as="alternateBounds"/>
                    </mxGeometry>
                </mxCell>
                <mxCell id="Dux-7o8v0CumdMAZQHKP-123" value="0" style="shape=partialRectangle;html=1;whiteSpace=wrap;connectable=0;fillColor=#FFB366;top=0;left=0;bottom=0;right=0;overflow=hidden;pointerEvents=1;strokeWidth=1;fontStyle=1" parent="Dux-7o8v0CumdMAZQHKP-110" vertex="1">
                    <mxGeometry x="331" width="27" height="29" as="geometry">
                        <mxRectangle width="27" height="29" as="alternateBounds"/>
                    </mxGeometry>
                </mxCell>
                <mxCell id="Dux-7o8v0CumdMAZQHKP-124" value="0" style="shape=partialRectangle;html=1;whiteSpace=wrap;connectable=0;fillColor=#FFB366;top=0;left=0;bottom=0;right=0;overflow=hidden;pointerEvents=1;strokeWidth=1;fontStyle=1" parent="Dux-7o8v0CumdMAZQHKP-110" vertex="1">
                    <mxGeometry x="358" width="27" height="29" as="geometry">
                        <mxRectangle width="27" height="29" as="alternateBounds"/>
                    </mxGeometry>
                </mxCell>
                <mxCell id="Dux-7o8v0CumdMAZQHKP-125" value="0" style="shape=partialRectangle;html=1;whiteSpace=wrap;connectable=0;fillColor=#FFB366;top=0;left=0;bottom=0;right=0;overflow=hidden;pointerEvents=1;strokeWidth=1;fontStyle=1" parent="Dux-7o8v0CumdMAZQHKP-110" vertex="1">
                    <mxGeometry x="385" width="26" height="29" as="geometry">
                        <mxRectangle width="26" height="29" as="alternateBounds"/>
                    </mxGeometry>
                </mxCell>
                <mxCell id="Dux-7o8v0CumdMAZQHKP-126" value="0" style="shape=partialRectangle;html=1;whiteSpace=wrap;connectable=0;fillColor=#FFB366;top=0;left=0;bottom=0;right=0;overflow=hidden;pointerEvents=1;strokeWidth=1;fontStyle=1" parent="Dux-7o8v0CumdMAZQHKP-110" vertex="1">
                    <mxGeometry x="411" width="29" height="29" as="geometry">
                        <mxRectangle width="29" height="29" as="alternateBounds"/>
                    </mxGeometry>
                </mxCell>
                <mxCell id="Dux-7o8v0CumdMAZQHKP-93" style="shape=partialRectangle;html=1;whiteSpace=wrap;collapsible=0;dropTarget=0;pointerEvents=0;fillColor=none;top=0;left=0;bottom=0;right=0;points=[[0,0.5],[1,0.5]];portConstraint=eastwest;strokeWidth=1;fontStyle=1" parent="Dux-7o8v0CumdMAZQHKP-1" vertex="1">
                    <mxGeometry y="29" width="440" height="28" as="geometry"/>
                </mxCell>
                <mxCell id="Dux-7o8v0CumdMAZQHKP-94" value="12" style="shape=partialRectangle;html=1;whiteSpace=wrap;connectable=0;fillColor=#CCFF99;top=0;left=0;bottom=0;right=0;overflow=hidden;pointerEvents=1;strokeWidth=1;fontStyle=1" parent="Dux-7o8v0CumdMAZQHKP-93" vertex="1">
                    <mxGeometry width="29" height="28" as="geometry">
                        <mxRectangle width="29" height="28" as="alternateBounds"/>
                    </mxGeometry>
                </mxCell>
                <mxCell id="Dux-7o8v0CumdMAZQHKP-95" value="13" style="shape=partialRectangle;html=1;whiteSpace=wrap;connectable=0;fillColor=#CCFF99;top=0;left=0;bottom=0;right=0;overflow=hidden;pointerEvents=1;strokeWidth=1;fontStyle=1" parent="Dux-7o8v0CumdMAZQHKP-93" vertex="1">
                    <mxGeometry x="29" width="26" height="28" as="geometry">
                        <mxRectangle width="26" height="28" as="alternateBounds"/>
                    </mxGeometry>
                </mxCell>
                <mxCell id="Dux-7o8v0CumdMAZQHKP-96" value="14" style="shape=partialRectangle;html=1;whiteSpace=wrap;connectable=0;fillColor=#CCFF99;top=0;left=0;bottom=0;right=0;overflow=hidden;pointerEvents=1;strokeWidth=1;fontStyle=1" parent="Dux-7o8v0CumdMAZQHKP-93" vertex="1">
                    <mxGeometry x="55" width="27" height="28" as="geometry">
                        <mxRectangle width="27" height="28" as="alternateBounds"/>
                    </mxGeometry>
                </mxCell>
                <mxCell id="Dux-7o8v0CumdMAZQHKP-97" value="15" style="shape=partialRectangle;html=1;whiteSpace=wrap;connectable=0;fillColor=#CCFF99;top=0;left=0;bottom=0;right=0;overflow=hidden;pointerEvents=1;strokeWidth=1;fontStyle=1" parent="Dux-7o8v0CumdMAZQHKP-93" vertex="1">
                    <mxGeometry x="82" width="29" height="28" as="geometry">
                        <mxRectangle width="29" height="28" as="alternateBounds"/>
                    </mxGeometry>
                </mxCell>
                <mxCell id="Dux-7o8v0CumdMAZQHKP-98" value="16" style="shape=partialRectangle;html=1;whiteSpace=wrap;connectable=0;fillColor=#CCFF99;top=0;left=0;bottom=0;right=0;overflow=hidden;pointerEvents=1;strokeWidth=1;fontStyle=1" parent="Dux-7o8v0CumdMAZQHKP-93" vertex="1">
                    <mxGeometry x="111" width="27" height="28" as="geometry">
                        <mxRectangle width="27" height="28" as="alternateBounds"/>
                    </mxGeometry>
                </mxCell>
                <mxCell id="Dux-7o8v0CumdMAZQHKP-99" value="17" style="shape=partialRectangle;html=1;whiteSpace=wrap;connectable=0;fillColor=#CCFF99;top=0;left=0;bottom=0;right=0;overflow=hidden;pointerEvents=1;strokeWidth=1;fontStyle=1" parent="Dux-7o8v0CumdMAZQHKP-93" vertex="1">
                    <mxGeometry x="138" width="27" height="28" as="geometry">
                        <mxRectangle width="27" height="28" as="alternateBounds"/>
                    </mxGeometry>
                </mxCell>
                <mxCell id="Dux-7o8v0CumdMAZQHKP-100" value="18" style="shape=partialRectangle;html=1;whiteSpace=wrap;connectable=0;fillColor=#CCFF99;top=0;left=0;bottom=0;right=0;overflow=hidden;pointerEvents=1;strokeWidth=1;fontStyle=1" parent="Dux-7o8v0CumdMAZQHKP-93" vertex="1">
                    <mxGeometry x="165" width="26" height="28" as="geometry">
                        <mxRectangle width="26" height="28" as="alternateBounds"/>
                    </mxGeometry>
                </mxCell>
                <mxCell id="Dux-7o8v0CumdMAZQHKP-101" value="19" style="shape=partialRectangle;html=1;whiteSpace=wrap;connectable=0;fillColor=#CCFF99;top=0;left=0;bottom=0;right=0;overflow=hidden;pointerEvents=1;strokeWidth=1;fontStyle=1" parent="Dux-7o8v0CumdMAZQHKP-93" vertex="1">
                    <mxGeometry x="191" width="29" height="28" as="geometry">
                        <mxRectangle width="29" height="28" as="alternateBounds"/>
                    </mxGeometry>
                </mxCell>
                <mxCell id="Dux-7o8v0CumdMAZQHKP-102" value="20" style="shape=partialRectangle;html=1;whiteSpace=wrap;connectable=0;fillColor=#FFB366;top=0;left=0;bottom=0;right=0;overflow=hidden;pointerEvents=1;strokeWidth=1;fontStyle=1" parent="Dux-7o8v0CumdMAZQHKP-93" vertex="1">
                    <mxGeometry x="220" width="29" height="28" as="geometry">
                        <mxRectangle width="29" height="28" as="alternateBounds"/>
                    </mxGeometry>
                </mxCell>
                <mxCell id="Dux-7o8v0CumdMAZQHKP-103" value="21" style="shape=partialRectangle;html=1;whiteSpace=wrap;connectable=0;fillColor=#FFB366;top=0;left=0;bottom=0;right=0;overflow=hidden;pointerEvents=1;strokeWidth=1;fontStyle=1" parent="Dux-7o8v0CumdMAZQHKP-93" vertex="1">
                    <mxGeometry x="249" width="26" height="28" as="geometry">
                        <mxRectangle width="26" height="28" as="alternateBounds"/>
                    </mxGeometry>
                </mxCell>
                <mxCell id="Dux-7o8v0CumdMAZQHKP-104" value="22" style="shape=partialRectangle;html=1;whiteSpace=wrap;connectable=0;fillColor=#FFB366;top=0;left=0;bottom=0;right=0;overflow=hidden;pointerEvents=1;strokeWidth=1;fontStyle=1" parent="Dux-7o8v0CumdMAZQHKP-93" vertex="1">
                    <mxGeometry x="275" width="27" height="28" as="geometry">
                        <mxRectangle width="27" height="28" as="alternateBounds"/>
                    </mxGeometry>
                </mxCell>
                <mxCell id="Dux-7o8v0CumdMAZQHKP-105" value="23" style="shape=partialRectangle;html=1;whiteSpace=wrap;connectable=0;fillColor=#FFB366;top=0;left=0;bottom=0;right=0;overflow=hidden;pointerEvents=1;strokeWidth=1;fontStyle=1" parent="Dux-7o8v0CumdMAZQHKP-93" vertex="1">
                    <mxGeometry x="302" width="29" height="28" as="geometry">
                        <mxRectangle width="29" height="28" as="alternateBounds"/>
                    </mxGeometry>
                </mxCell>
                <mxCell id="Dux-7o8v0CumdMAZQHKP-106" value="0" style="shape=partialRectangle;html=1;whiteSpace=wrap;connectable=0;fillColor=#FFB366;top=0;left=0;bottom=0;right=0;overflow=hidden;pointerEvents=1;strokeWidth=1;fontStyle=1" parent="Dux-7o8v0CumdMAZQHKP-93" vertex="1">
                    <mxGeometry x="331" width="27" height="28" as="geometry">
                        <mxRectangle width="27" height="28" as="alternateBounds"/>
                    </mxGeometry>
                </mxCell>
                <mxCell id="Dux-7o8v0CumdMAZQHKP-107" value="0" style="shape=partialRectangle;html=1;whiteSpace=wrap;connectable=0;fillColor=#FFB366;top=0;left=0;bottom=0;right=0;overflow=hidden;pointerEvents=1;strokeWidth=1;fontStyle=1" parent="Dux-7o8v0CumdMAZQHKP-93" vertex="1">
                    <mxGeometry x="358" width="27" height="28" as="geometry">
                        <mxRectangle width="27" height="28" as="alternateBounds"/>
                    </mxGeometry>
                </mxCell>
                <mxCell id="Dux-7o8v0CumdMAZQHKP-108" value="0" style="shape=partialRectangle;html=1;whiteSpace=wrap;connectable=0;fillColor=#FFB366;top=0;left=0;bottom=0;right=0;overflow=hidden;pointerEvents=1;strokeWidth=1;fontStyle=1" parent="Dux-7o8v0CumdMAZQHKP-93" vertex="1">
                    <mxGeometry x="385" width="26" height="28" as="geometry">
                        <mxRectangle width="26" height="28" as="alternateBounds"/>
                    </mxGeometry>
                </mxCell>
                <mxCell id="Dux-7o8v0CumdMAZQHKP-109" value="0" style="shape=partialRectangle;html=1;whiteSpace=wrap;connectable=0;fillColor=#FFB366;top=0;left=0;bottom=0;right=0;overflow=hidden;pointerEvents=1;strokeWidth=1;fontStyle=1" parent="Dux-7o8v0CumdMAZQHKP-93" vertex="1">
                    <mxGeometry x="411" width="29" height="28" as="geometry">
                        <mxRectangle width="29" height="28" as="alternateBounds"/>
                    </mxGeometry>
                </mxCell>
                <mxCell id="Dux-7o8v0CumdMAZQHKP-76" style="shape=partialRectangle;html=1;whiteSpace=wrap;collapsible=0;dropTarget=0;pointerEvents=0;fillColor=none;top=0;left=0;bottom=0;right=0;points=[[0,0.5],[1,0.5]];portConstraint=eastwest;strokeWidth=1;fontStyle=1" parent="Dux-7o8v0CumdMAZQHKP-1" vertex="1">
                    <mxGeometry y="57" width="440" height="29" as="geometry"/>
                </mxCell>
                <mxCell id="Dux-7o8v0CumdMAZQHKP-77" value="24" style="shape=partialRectangle;html=1;whiteSpace=wrap;connectable=0;fillColor=#CCFF99;top=0;left=0;bottom=0;right=0;overflow=hidden;pointerEvents=1;strokeWidth=1;fontStyle=1" parent="Dux-7o8v0CumdMAZQHKP-76" vertex="1">
                    <mxGeometry width="29" height="29" as="geometry">
                        <mxRectangle width="29" height="29" as="alternateBounds"/>
                    </mxGeometry>
                </mxCell>
                <mxCell id="Dux-7o8v0CumdMAZQHKP-78" value="25" style="shape=partialRectangle;html=1;whiteSpace=wrap;connectable=0;fillColor=#CCFF99;top=0;left=0;bottom=0;right=0;overflow=hidden;pointerEvents=1;strokeWidth=1;fontStyle=1" parent="Dux-7o8v0CumdMAZQHKP-76" vertex="1">
                    <mxGeometry x="29" width="26" height="29" as="geometry">
                        <mxRectangle width="26" height="29" as="alternateBounds"/>
                    </mxGeometry>
                </mxCell>
                <mxCell id="Dux-7o8v0CumdMAZQHKP-79" value="26" style="shape=partialRectangle;html=1;whiteSpace=wrap;connectable=0;fillColor=#CCFF99;top=0;left=0;bottom=0;right=0;overflow=hidden;pointerEvents=1;strokeWidth=1;fontStyle=1" parent="Dux-7o8v0CumdMAZQHKP-76" vertex="1">
                    <mxGeometry x="55" width="27" height="29" as="geometry">
                        <mxRectangle width="27" height="29" as="alternateBounds"/>
                    </mxGeometry>
                </mxCell>
                <mxCell id="Dux-7o8v0CumdMAZQHKP-80" value="27" style="shape=partialRectangle;html=1;whiteSpace=wrap;connectable=0;fillColor=#CCFF99;top=0;left=0;bottom=0;right=0;overflow=hidden;pointerEvents=1;strokeWidth=1;fontStyle=1" parent="Dux-7o8v0CumdMAZQHKP-76" vertex="1">
                    <mxGeometry x="82" width="29" height="29" as="geometry">
                        <mxRectangle width="29" height="29" as="alternateBounds"/>
                    </mxGeometry>
                </mxCell>
                <mxCell id="Dux-7o8v0CumdMAZQHKP-81" value="28" style="shape=partialRectangle;html=1;whiteSpace=wrap;connectable=0;fillColor=#CCFF99;top=0;left=0;bottom=0;right=0;overflow=hidden;pointerEvents=1;strokeWidth=1;fontStyle=1" parent="Dux-7o8v0CumdMAZQHKP-76" vertex="1">
                    <mxGeometry x="111" width="27" height="29" as="geometry">
                        <mxRectangle width="27" height="29" as="alternateBounds"/>
                    </mxGeometry>
                </mxCell>
                <mxCell id="Dux-7o8v0CumdMAZQHKP-82" value="29" style="shape=partialRectangle;html=1;whiteSpace=wrap;connectable=0;fillColor=#CCFF99;top=0;left=0;bottom=0;right=0;overflow=hidden;pointerEvents=1;strokeWidth=1;fontStyle=1" parent="Dux-7o8v0CumdMAZQHKP-76" vertex="1">
                    <mxGeometry x="138" width="27" height="29" as="geometry">
                        <mxRectangle width="27" height="29" as="alternateBounds"/>
                    </mxGeometry>
                </mxCell>
                <mxCell id="Dux-7o8v0CumdMAZQHKP-83" value="30" style="shape=partialRectangle;html=1;whiteSpace=wrap;connectable=0;fillColor=#CCFF99;top=0;left=0;bottom=0;right=0;overflow=hidden;pointerEvents=1;strokeWidth=1;fontStyle=1" parent="Dux-7o8v0CumdMAZQHKP-76" vertex="1">
                    <mxGeometry x="165" width="26" height="29" as="geometry">
                        <mxRectangle width="26" height="29" as="alternateBounds"/>
                    </mxGeometry>
                </mxCell>
                <mxCell id="Dux-7o8v0CumdMAZQHKP-84" value="31" style="shape=partialRectangle;html=1;whiteSpace=wrap;connectable=0;fillColor=#CCFF99;top=0;left=0;bottom=0;right=0;overflow=hidden;pointerEvents=1;strokeWidth=1;fontStyle=1" parent="Dux-7o8v0CumdMAZQHKP-76" vertex="1">
                    <mxGeometry x="191" width="29" height="29" as="geometry">
                        <mxRectangle width="29" height="29" as="alternateBounds"/>
                    </mxGeometry>
                </mxCell>
                <mxCell id="Dux-7o8v0CumdMAZQHKP-85" value="32" style="shape=partialRectangle;html=1;whiteSpace=wrap;connectable=0;fillColor=#FFB366;top=0;left=0;bottom=0;right=0;overflow=hidden;pointerEvents=1;strokeWidth=1;fontStyle=1" parent="Dux-7o8v0CumdMAZQHKP-76" vertex="1">
                    <mxGeometry x="220" width="29" height="29" as="geometry">
                        <mxRectangle width="29" height="29" as="alternateBounds"/>
                    </mxGeometry>
                </mxCell>
                <mxCell id="Dux-7o8v0CumdMAZQHKP-86" value="33" style="shape=partialRectangle;html=1;whiteSpace=wrap;connectable=0;fillColor=#FFB366;top=0;left=0;bottom=0;right=0;overflow=hidden;pointerEvents=1;strokeWidth=1;fontStyle=1" parent="Dux-7o8v0CumdMAZQHKP-76" vertex="1">
                    <mxGeometry x="249" width="26" height="29" as="geometry">
                        <mxRectangle width="26" height="29" as="alternateBounds"/>
                    </mxGeometry>
                </mxCell>
                <mxCell id="Dux-7o8v0CumdMAZQHKP-87" value="34" style="shape=partialRectangle;html=1;whiteSpace=wrap;connectable=0;fillColor=#FFB366;top=0;left=0;bottom=0;right=0;overflow=hidden;pointerEvents=1;strokeWidth=1;fontStyle=1" parent="Dux-7o8v0CumdMAZQHKP-76" vertex="1">
                    <mxGeometry x="275" width="27" height="29" as="geometry">
                        <mxRectangle width="27" height="29" as="alternateBounds"/>
                    </mxGeometry>
                </mxCell>
                <mxCell id="Dux-7o8v0CumdMAZQHKP-88" value="35" style="shape=partialRectangle;html=1;whiteSpace=wrap;connectable=0;fillColor=#FFB366;top=0;left=0;bottom=0;right=0;overflow=hidden;pointerEvents=1;strokeWidth=1;fontStyle=1" parent="Dux-7o8v0CumdMAZQHKP-76" vertex="1">
                    <mxGeometry x="302" width="29" height="29" as="geometry">
                        <mxRectangle width="29" height="29" as="alternateBounds"/>
                    </mxGeometry>
                </mxCell>
                <mxCell id="Dux-7o8v0CumdMAZQHKP-89" value="0" style="shape=partialRectangle;html=1;whiteSpace=wrap;connectable=0;fillColor=#FFB366;top=0;left=0;bottom=0;right=0;overflow=hidden;pointerEvents=1;strokeWidth=1;fontStyle=1" parent="Dux-7o8v0CumdMAZQHKP-76" vertex="1">
                    <mxGeometry x="331" width="27" height="29" as="geometry">
                        <mxRectangle width="27" height="29" as="alternateBounds"/>
                    </mxGeometry>
                </mxCell>
                <mxCell id="Dux-7o8v0CumdMAZQHKP-90" value="0" style="shape=partialRectangle;html=1;whiteSpace=wrap;connectable=0;fillColor=#FFB366;top=0;left=0;bottom=0;right=0;overflow=hidden;pointerEvents=1;strokeWidth=1;fontStyle=1" parent="Dux-7o8v0CumdMAZQHKP-76" vertex="1">
                    <mxGeometry x="358" width="27" height="29" as="geometry">
                        <mxRectangle width="27" height="29" as="alternateBounds"/>
                    </mxGeometry>
                </mxCell>
                <mxCell id="Dux-7o8v0CumdMAZQHKP-91" value="0" style="shape=partialRectangle;html=1;whiteSpace=wrap;connectable=0;fillColor=#FFB366;top=0;left=0;bottom=0;right=0;overflow=hidden;pointerEvents=1;strokeWidth=1;fontStyle=1" parent="Dux-7o8v0CumdMAZQHKP-76" vertex="1">
                    <mxGeometry x="385" width="26" height="29" as="geometry">
                        <mxRectangle width="26" height="29" as="alternateBounds"/>
                    </mxGeometry>
                </mxCell>
                <mxCell id="Dux-7o8v0CumdMAZQHKP-92" value="0" style="shape=partialRectangle;html=1;whiteSpace=wrap;connectable=0;fillColor=#FFB366;top=0;left=0;bottom=0;right=0;overflow=hidden;pointerEvents=1;strokeWidth=1;fontStyle=1" parent="Dux-7o8v0CumdMAZQHKP-76" vertex="1">
                    <mxGeometry x="411" width="29" height="29" as="geometry">
                        <mxRectangle width="29" height="29" as="alternateBounds"/>
                    </mxGeometry>
                </mxCell>
                <mxCell id="Dux-7o8v0CumdMAZQHKP-59" style="shape=partialRectangle;html=1;whiteSpace=wrap;collapsible=0;dropTarget=0;pointerEvents=0;fillColor=none;top=0;left=0;bottom=0;right=0;points=[[0,0.5],[1,0.5]];portConstraint=eastwest;strokeWidth=1;fontStyle=1" parent="Dux-7o8v0CumdMAZQHKP-1" vertex="1">
                    <mxGeometry y="86" width="440" height="28" as="geometry"/>
                </mxCell>
                <mxCell id="Dux-7o8v0CumdMAZQHKP-60" value="36" style="shape=partialRectangle;html=1;whiteSpace=wrap;connectable=0;fillColor=#CCFF99;top=0;left=0;bottom=0;right=0;overflow=hidden;pointerEvents=1;strokeWidth=1;fontStyle=1" parent="Dux-7o8v0CumdMAZQHKP-59" vertex="1">
                    <mxGeometry width="29" height="28" as="geometry">
                        <mxRectangle width="29" height="28" as="alternateBounds"/>
                    </mxGeometry>
                </mxCell>
                <mxCell id="Dux-7o8v0CumdMAZQHKP-61" value="37" style="shape=partialRectangle;html=1;whiteSpace=wrap;connectable=0;fillColor=#CCFF99;top=0;left=0;bottom=0;right=0;overflow=hidden;pointerEvents=1;strokeWidth=1;fontStyle=1" parent="Dux-7o8v0CumdMAZQHKP-59" vertex="1">
                    <mxGeometry x="29" width="26" height="28" as="geometry">
                        <mxRectangle width="26" height="28" as="alternateBounds"/>
                    </mxGeometry>
                </mxCell>
                <mxCell id="Dux-7o8v0CumdMAZQHKP-62" value="38" style="shape=partialRectangle;html=1;whiteSpace=wrap;connectable=0;fillColor=#CCFF99;top=0;left=0;bottom=0;right=0;overflow=hidden;pointerEvents=1;strokeWidth=1;fontStyle=1" parent="Dux-7o8v0CumdMAZQHKP-59" vertex="1">
                    <mxGeometry x="55" width="27" height="28" as="geometry">
                        <mxRectangle width="27" height="28" as="alternateBounds"/>
                    </mxGeometry>
                </mxCell>
                <mxCell id="Dux-7o8v0CumdMAZQHKP-63" value="39" style="shape=partialRectangle;html=1;whiteSpace=wrap;connectable=0;fillColor=#CCFF99;top=0;left=0;bottom=0;right=0;overflow=hidden;pointerEvents=1;strokeWidth=1;fontStyle=1" parent="Dux-7o8v0CumdMAZQHKP-59" vertex="1">
                    <mxGeometry x="82" width="29" height="28" as="geometry">
                        <mxRectangle width="29" height="28" as="alternateBounds"/>
                    </mxGeometry>
                </mxCell>
                <mxCell id="Dux-7o8v0CumdMAZQHKP-64" value="40" style="shape=partialRectangle;html=1;whiteSpace=wrap;connectable=0;fillColor=#CCFF99;top=0;left=0;bottom=0;right=0;overflow=hidden;pointerEvents=1;strokeWidth=1;fontStyle=1" parent="Dux-7o8v0CumdMAZQHKP-59" vertex="1">
                    <mxGeometry x="111" width="27" height="28" as="geometry">
                        <mxRectangle width="27" height="28" as="alternateBounds"/>
                    </mxGeometry>
                </mxCell>
                <mxCell id="Dux-7o8v0CumdMAZQHKP-65" value="41" style="shape=partialRectangle;html=1;whiteSpace=wrap;connectable=0;fillColor=#CCFF99;top=0;left=0;bottom=0;right=0;overflow=hidden;pointerEvents=1;strokeWidth=1;fontStyle=1" parent="Dux-7o8v0CumdMAZQHKP-59" vertex="1">
                    <mxGeometry x="138" width="27" height="28" as="geometry">
                        <mxRectangle width="27" height="28" as="alternateBounds"/>
                    </mxGeometry>
                </mxCell>
                <mxCell id="Dux-7o8v0CumdMAZQHKP-66" value="42" style="shape=partialRectangle;html=1;whiteSpace=wrap;connectable=0;fillColor=#CCFF99;top=0;left=0;bottom=0;right=0;overflow=hidden;pointerEvents=1;strokeWidth=1;fontStyle=1" parent="Dux-7o8v0CumdMAZQHKP-59" vertex="1">
                    <mxGeometry x="165" width="26" height="28" as="geometry">
                        <mxRectangle width="26" height="28" as="alternateBounds"/>
                    </mxGeometry>
                </mxCell>
                <mxCell id="Dux-7o8v0CumdMAZQHKP-67" value="43" style="shape=partialRectangle;html=1;whiteSpace=wrap;connectable=0;fillColor=#CCFF99;top=0;left=0;bottom=0;right=0;overflow=hidden;pointerEvents=1;strokeWidth=1;fontStyle=1" parent="Dux-7o8v0CumdMAZQHKP-59" vertex="1">
                    <mxGeometry x="191" width="29" height="28" as="geometry">
                        <mxRectangle width="29" height="28" as="alternateBounds"/>
                    </mxGeometry>
                </mxCell>
                <mxCell id="Dux-7o8v0CumdMAZQHKP-68" value="44" style="shape=partialRectangle;html=1;whiteSpace=wrap;connectable=0;fillColor=#FFB366;top=0;left=0;bottom=0;right=0;overflow=hidden;pointerEvents=1;strokeWidth=1;fontStyle=1" parent="Dux-7o8v0CumdMAZQHKP-59" vertex="1">
                    <mxGeometry x="220" width="29" height="28" as="geometry">
                        <mxRectangle width="29" height="28" as="alternateBounds"/>
                    </mxGeometry>
                </mxCell>
                <mxCell id="Dux-7o8v0CumdMAZQHKP-69" value="45" style="shape=partialRectangle;html=1;whiteSpace=wrap;connectable=0;fillColor=#FFB366;top=0;left=0;bottom=0;right=0;overflow=hidden;pointerEvents=1;strokeWidth=1;fontStyle=1" parent="Dux-7o8v0CumdMAZQHKP-59" vertex="1">
                    <mxGeometry x="249" width="26" height="28" as="geometry">
                        <mxRectangle width="26" height="28" as="alternateBounds"/>
                    </mxGeometry>
                </mxCell>
                <mxCell id="Dux-7o8v0CumdMAZQHKP-70" value="46" style="shape=partialRectangle;html=1;whiteSpace=wrap;connectable=0;fillColor=#FFB366;top=0;left=0;bottom=0;right=0;overflow=hidden;pointerEvents=1;strokeWidth=1;fontStyle=1" parent="Dux-7o8v0CumdMAZQHKP-59" vertex="1">
                    <mxGeometry x="275" width="27" height="28" as="geometry">
                        <mxRectangle width="27" height="28" as="alternateBounds"/>
                    </mxGeometry>
                </mxCell>
                <mxCell id="Dux-7o8v0CumdMAZQHKP-71" value="47" style="shape=partialRectangle;html=1;whiteSpace=wrap;connectable=0;fillColor=#FFB366;top=0;left=0;bottom=0;right=0;overflow=hidden;pointerEvents=1;strokeWidth=1;fontStyle=1" parent="Dux-7o8v0CumdMAZQHKP-59" vertex="1">
                    <mxGeometry x="302" width="29" height="28" as="geometry">
                        <mxRectangle width="29" height="28" as="alternateBounds"/>
                    </mxGeometry>
                </mxCell>
                <mxCell id="Dux-7o8v0CumdMAZQHKP-72" value="0" style="shape=partialRectangle;html=1;whiteSpace=wrap;connectable=0;fillColor=#FFB366;top=0;left=0;bottom=0;right=0;overflow=hidden;pointerEvents=1;strokeWidth=1;fontStyle=1" parent="Dux-7o8v0CumdMAZQHKP-59" vertex="1">
                    <mxGeometry x="331" width="27" height="28" as="geometry">
                        <mxRectangle width="27" height="28" as="alternateBounds"/>
                    </mxGeometry>
                </mxCell>
                <mxCell id="Dux-7o8v0CumdMAZQHKP-73" value="0" style="shape=partialRectangle;html=1;whiteSpace=wrap;connectable=0;fillColor=#FFB366;top=0;left=0;bottom=0;right=0;overflow=hidden;pointerEvents=1;strokeWidth=1;fontStyle=1" parent="Dux-7o8v0CumdMAZQHKP-59" vertex="1">
                    <mxGeometry x="358" width="27" height="28" as="geometry">
                        <mxRectangle width="27" height="28" as="alternateBounds"/>
                    </mxGeometry>
                </mxCell>
                <mxCell id="Dux-7o8v0CumdMAZQHKP-74" value="0" style="shape=partialRectangle;html=1;whiteSpace=wrap;connectable=0;fillColor=#FFB366;top=0;left=0;bottom=0;right=0;overflow=hidden;pointerEvents=1;strokeWidth=1;fontStyle=1" parent="Dux-7o8v0CumdMAZQHKP-59" vertex="1">
                    <mxGeometry x="385" width="26" height="28" as="geometry">
                        <mxRectangle width="26" height="28" as="alternateBounds"/>
                    </mxGeometry>
                </mxCell>
                <mxCell id="Dux-7o8v0CumdMAZQHKP-75" value="0" style="shape=partialRectangle;html=1;whiteSpace=wrap;connectable=0;fillColor=#FFB366;top=0;left=0;bottom=0;right=0;overflow=hidden;pointerEvents=1;strokeWidth=1;fontStyle=1" parent="Dux-7o8v0CumdMAZQHKP-59" vertex="1">
                    <mxGeometry x="411" width="29" height="28" as="geometry">
                        <mxRectangle width="29" height="28" as="alternateBounds"/>
                    </mxGeometry>
                </mxCell>
                <mxCell id="Dux-7o8v0CumdMAZQHKP-2" value="" style="shape=partialRectangle;html=1;whiteSpace=wrap;collapsible=0;dropTarget=0;pointerEvents=0;fillColor=none;top=0;left=0;bottom=0;right=0;points=[[0,0.5],[1,0.5]];portConstraint=eastwest;strokeWidth=1;fontStyle=1" parent="Dux-7o8v0CumdMAZQHKP-1" vertex="1">
                    <mxGeometry y="114" width="440" height="29" as="geometry"/>
                </mxCell>
                <mxCell id="Dux-7o8v0CumdMAZQHKP-3" value="48" style="shape=partialRectangle;html=1;whiteSpace=wrap;connectable=0;fillColor=#FFFFCC;top=0;left=0;bottom=0;right=0;overflow=hidden;pointerEvents=1;strokeWidth=1;fontStyle=1" parent="Dux-7o8v0CumdMAZQHKP-2" vertex="1">
                    <mxGeometry width="29" height="29" as="geometry">
                        <mxRectangle width="29" height="29" as="alternateBounds"/>
                    </mxGeometry>
                </mxCell>
                <mxCell id="Dux-7o8v0CumdMAZQHKP-4" value="49" style="shape=partialRectangle;html=1;whiteSpace=wrap;connectable=0;fillColor=#FFFFCC;top=0;left=0;bottom=0;right=0;overflow=hidden;pointerEvents=1;strokeWidth=1;fontStyle=1" parent="Dux-7o8v0CumdMAZQHKP-2" vertex="1">
                    <mxGeometry x="29" width="26" height="29" as="geometry">
                        <mxRectangle width="26" height="29" as="alternateBounds"/>
                    </mxGeometry>
                </mxCell>
                <mxCell id="Dux-7o8v0CumdMAZQHKP-14" value="50" style="shape=partialRectangle;html=1;whiteSpace=wrap;connectable=0;fillColor=#FFFFCC;top=0;left=0;bottom=0;right=0;overflow=hidden;pointerEvents=1;strokeWidth=1;fontStyle=1" parent="Dux-7o8v0CumdMAZQHKP-2" vertex="1">
                    <mxGeometry x="55" width="27" height="29" as="geometry">
                        <mxRectangle width="27" height="29" as="alternateBounds"/>
                    </mxGeometry>
                </mxCell>
                <mxCell id="Dux-7o8v0CumdMAZQHKP-17" value="51" style="shape=partialRectangle;html=1;whiteSpace=wrap;connectable=0;fillColor=#FFFFCC;top=0;left=0;bottom=0;right=0;overflow=hidden;pointerEvents=1;strokeWidth=1;fontStyle=1" parent="Dux-7o8v0CumdMAZQHKP-2" vertex="1">
                    <mxGeometry x="82" width="29" height="29" as="geometry">
                        <mxRectangle width="29" height="29" as="alternateBounds"/>
                    </mxGeometry>
                </mxCell>
                <mxCell id="Dux-7o8v0CumdMAZQHKP-20" value="52" style="shape=partialRectangle;html=1;whiteSpace=wrap;connectable=0;fillColor=#FFFFCC;top=0;left=0;bottom=0;right=0;overflow=hidden;pointerEvents=1;strokeWidth=1;fontStyle=1" parent="Dux-7o8v0CumdMAZQHKP-2" vertex="1">
                    <mxGeometry x="111" width="27" height="29" as="geometry">
                        <mxRectangle width="27" height="29" as="alternateBounds"/>
                    </mxGeometry>
                </mxCell>
                <mxCell id="Dux-7o8v0CumdMAZQHKP-23" value="53" style="shape=partialRectangle;html=1;whiteSpace=wrap;connectable=0;fillColor=#FFFFCC;top=0;left=0;bottom=0;right=0;overflow=hidden;pointerEvents=1;strokeWidth=1;fontStyle=1" parent="Dux-7o8v0CumdMAZQHKP-2" vertex="1">
                    <mxGeometry x="138" width="27" height="29" as="geometry">
                        <mxRectangle width="27" height="29" as="alternateBounds"/>
                    </mxGeometry>
                </mxCell>
                <mxCell id="Dux-7o8v0CumdMAZQHKP-26" value="54" style="shape=partialRectangle;html=1;whiteSpace=wrap;connectable=0;fillColor=#FFFFCC;top=0;left=0;bottom=0;right=0;overflow=hidden;pointerEvents=1;strokeWidth=1;fontStyle=1" parent="Dux-7o8v0CumdMAZQHKP-2" vertex="1">
                    <mxGeometry x="165" width="26" height="29" as="geometry">
                        <mxRectangle width="26" height="29" as="alternateBounds"/>
                    </mxGeometry>
                </mxCell>
                <mxCell id="Dux-7o8v0CumdMAZQHKP-29" value="55" style="shape=partialRectangle;html=1;whiteSpace=wrap;connectable=0;fillColor=#FFFFCC;top=0;left=0;bottom=0;right=0;overflow=hidden;pointerEvents=1;strokeWidth=1;fontStyle=1" parent="Dux-7o8v0CumdMAZQHKP-2" vertex="1">
                    <mxGeometry x="191" width="29" height="29" as="geometry">
                        <mxRectangle width="29" height="29" as="alternateBounds"/>
                    </mxGeometry>
                </mxCell>
                <mxCell id="Dux-7o8v0CumdMAZQHKP-32" value="56" style="shape=partialRectangle;html=1;whiteSpace=wrap;connectable=0;fillColor=#FF9999;top=0;left=0;bottom=0;right=0;overflow=hidden;pointerEvents=1;strokeWidth=1;fontStyle=1" parent="Dux-7o8v0CumdMAZQHKP-2" vertex="1">
                    <mxGeometry x="220" width="29" height="29" as="geometry">
                        <mxRectangle width="29" height="29" as="alternateBounds"/>
                    </mxGeometry>
                </mxCell>
                <mxCell id="Dux-7o8v0CumdMAZQHKP-35" value="57" style="shape=partialRectangle;html=1;whiteSpace=wrap;connectable=0;fillColor=#FF9999;top=0;left=0;bottom=0;right=0;overflow=hidden;pointerEvents=1;strokeWidth=1;fontStyle=1" parent="Dux-7o8v0CumdMAZQHKP-2" vertex="1">
                    <mxGeometry x="249" width="26" height="29" as="geometry">
                        <mxRectangle width="26" height="29" as="alternateBounds"/>
                    </mxGeometry>
                </mxCell>
                <mxCell id="Dux-7o8v0CumdMAZQHKP-38" value="58" style="shape=partialRectangle;html=1;whiteSpace=wrap;connectable=0;fillColor=#FF9999;top=0;left=0;bottom=0;right=0;overflow=hidden;pointerEvents=1;strokeWidth=1;fontStyle=1" parent="Dux-7o8v0CumdMAZQHKP-2" vertex="1">
                    <mxGeometry x="275" width="27" height="29" as="geometry">
                        <mxRectangle width="27" height="29" as="alternateBounds"/>
                    </mxGeometry>
                </mxCell>
                <mxCell id="Dux-7o8v0CumdMAZQHKP-41" value="59" style="shape=partialRectangle;html=1;whiteSpace=wrap;connectable=0;fillColor=#FF9999;top=0;left=0;bottom=0;right=0;overflow=hidden;pointerEvents=1;strokeWidth=1;fontStyle=1" parent="Dux-7o8v0CumdMAZQHKP-2" vertex="1">
                    <mxGeometry x="302" width="29" height="29" as="geometry">
                        <mxRectangle width="29" height="29" as="alternateBounds"/>
                    </mxGeometry>
                </mxCell>
                <mxCell id="Dux-7o8v0CumdMAZQHKP-44" value="0" style="shape=partialRectangle;html=1;whiteSpace=wrap;connectable=0;fillColor=#FF9999;top=0;left=0;bottom=0;right=0;overflow=hidden;pointerEvents=1;strokeWidth=1;fontStyle=1" parent="Dux-7o8v0CumdMAZQHKP-2" vertex="1">
                    <mxGeometry x="331" width="27" height="29" as="geometry">
                        <mxRectangle width="27" height="29" as="alternateBounds"/>
                    </mxGeometry>
                </mxCell>
                <mxCell id="Dux-7o8v0CumdMAZQHKP-47" value="0" style="shape=partialRectangle;html=1;whiteSpace=wrap;connectable=0;fillColor=#FF9999;top=0;left=0;bottom=0;right=0;overflow=hidden;pointerEvents=1;strokeWidth=1;fontStyle=1" parent="Dux-7o8v0CumdMAZQHKP-2" vertex="1">
                    <mxGeometry x="358" width="27" height="29" as="geometry">
                        <mxRectangle width="27" height="29" as="alternateBounds"/>
                    </mxGeometry>
                </mxCell>
                <mxCell id="Dux-7o8v0CumdMAZQHKP-50" value="0" style="shape=partialRectangle;html=1;whiteSpace=wrap;connectable=0;fillColor=#FF9999;top=0;left=0;bottom=0;right=0;overflow=hidden;pointerEvents=1;strokeWidth=1;fontStyle=1" parent="Dux-7o8v0CumdMAZQHKP-2" vertex="1">
                    <mxGeometry x="385" width="26" height="29" as="geometry">
                        <mxRectangle width="26" height="29" as="alternateBounds"/>
                    </mxGeometry>
                </mxCell>
                <mxCell id="Dux-7o8v0CumdMAZQHKP-56" value="0" style="shape=partialRectangle;html=1;whiteSpace=wrap;connectable=0;fillColor=#FF9999;top=0;left=0;bottom=0;right=0;overflow=hidden;pointerEvents=1;strokeWidth=1;fontStyle=1" parent="Dux-7o8v0CumdMAZQHKP-2" vertex="1">
                    <mxGeometry x="411" width="29" height="29" as="geometry">
                        <mxRectangle width="29" height="29" as="alternateBounds"/>
                    </mxGeometry>
                </mxCell>
                <mxCell id="Dux-7o8v0CumdMAZQHKP-200" style="shape=partialRectangle;html=1;whiteSpace=wrap;collapsible=0;dropTarget=0;pointerEvents=0;fillColor=none;top=0;left=0;bottom=0;right=0;points=[[0,0.5],[1,0.5]];portConstraint=eastwest;strokeWidth=1;fontStyle=1" parent="Dux-7o8v0CumdMAZQHKP-1" vertex="1">
                    <mxGeometry y="143" width="440" height="28" as="geometry"/>
                </mxCell>
                <mxCell id="Dux-7o8v0CumdMAZQHKP-201" value="60" style="shape=partialRectangle;html=1;whiteSpace=wrap;connectable=0;fillColor=#FFFFCC;top=0;left=0;bottom=0;right=0;overflow=hidden;pointerEvents=1;strokeWidth=1;fontStyle=1" parent="Dux-7o8v0CumdMAZQHKP-200" vertex="1">
                    <mxGeometry width="29" height="28" as="geometry">
                        <mxRectangle width="29" height="28" as="alternateBounds"/>
                    </mxGeometry>
                </mxCell>
                <mxCell id="Dux-7o8v0CumdMAZQHKP-202" value="61" style="shape=partialRectangle;html=1;whiteSpace=wrap;connectable=0;fillColor=#FFFFCC;top=0;left=0;bottom=0;right=0;overflow=hidden;pointerEvents=1;strokeWidth=1;fontStyle=1" parent="Dux-7o8v0CumdMAZQHKP-200" vertex="1">
                    <mxGeometry x="29" width="26" height="28" as="geometry">
                        <mxRectangle width="26" height="28" as="alternateBounds"/>
                    </mxGeometry>
                </mxCell>
                <mxCell id="Dux-7o8v0CumdMAZQHKP-203" value="62" style="shape=partialRectangle;html=1;whiteSpace=wrap;connectable=0;fillColor=#FFFFCC;top=0;left=0;bottom=0;right=0;overflow=hidden;pointerEvents=1;strokeWidth=1;fontStyle=1" parent="Dux-7o8v0CumdMAZQHKP-200" vertex="1">
                    <mxGeometry x="55" width="27" height="28" as="geometry">
                        <mxRectangle width="27" height="28" as="alternateBounds"/>
                    </mxGeometry>
                </mxCell>
                <mxCell id="Dux-7o8v0CumdMAZQHKP-204" value="63" style="shape=partialRectangle;html=1;whiteSpace=wrap;connectable=0;fillColor=#FFFFCC;top=0;left=0;bottom=0;right=0;overflow=hidden;pointerEvents=1;strokeWidth=1;fontStyle=1" parent="Dux-7o8v0CumdMAZQHKP-200" vertex="1">
                    <mxGeometry x="82" width="29" height="28" as="geometry">
                        <mxRectangle width="29" height="28" as="alternateBounds"/>
                    </mxGeometry>
                </mxCell>
                <mxCell id="Dux-7o8v0CumdMAZQHKP-205" value="64" style="shape=partialRectangle;html=1;whiteSpace=wrap;connectable=0;fillColor=#FFFFCC;top=0;left=0;bottom=0;right=0;overflow=hidden;pointerEvents=1;strokeWidth=1;fontStyle=1" parent="Dux-7o8v0CumdMAZQHKP-200" vertex="1">
                    <mxGeometry x="111" width="27" height="28" as="geometry">
                        <mxRectangle width="27" height="28" as="alternateBounds"/>
                    </mxGeometry>
                </mxCell>
                <mxCell id="Dux-7o8v0CumdMAZQHKP-206" value="65" style="shape=partialRectangle;html=1;whiteSpace=wrap;connectable=0;fillColor=#FFFFCC;top=0;left=0;bottom=0;right=0;overflow=hidden;pointerEvents=1;strokeWidth=1;fontStyle=1" parent="Dux-7o8v0CumdMAZQHKP-200" vertex="1">
                    <mxGeometry x="138" width="27" height="28" as="geometry">
                        <mxRectangle width="27" height="28" as="alternateBounds"/>
                    </mxGeometry>
                </mxCell>
                <mxCell id="Dux-7o8v0CumdMAZQHKP-207" value="66" style="shape=partialRectangle;html=1;whiteSpace=wrap;connectable=0;fillColor=#FFFFCC;top=0;left=0;bottom=0;right=0;overflow=hidden;pointerEvents=1;strokeWidth=1;fontStyle=1" parent="Dux-7o8v0CumdMAZQHKP-200" vertex="1">
                    <mxGeometry x="165" width="26" height="28" as="geometry">
                        <mxRectangle width="26" height="28" as="alternateBounds"/>
                    </mxGeometry>
                </mxCell>
                <mxCell id="Dux-7o8v0CumdMAZQHKP-208" value="67" style="shape=partialRectangle;html=1;whiteSpace=wrap;connectable=0;fillColor=#FFFFCC;top=0;left=0;bottom=0;right=0;overflow=hidden;pointerEvents=1;strokeWidth=1;fontStyle=1" parent="Dux-7o8v0CumdMAZQHKP-200" vertex="1">
                    <mxGeometry x="191" width="29" height="28" as="geometry">
                        <mxRectangle width="29" height="28" as="alternateBounds"/>
                    </mxGeometry>
                </mxCell>
                <mxCell id="Dux-7o8v0CumdMAZQHKP-209" value="68" style="shape=partialRectangle;html=1;whiteSpace=wrap;connectable=0;fillColor=#FF9999;top=0;left=0;bottom=0;right=0;overflow=hidden;pointerEvents=1;strokeWidth=1;fontStyle=1" parent="Dux-7o8v0CumdMAZQHKP-200" vertex="1">
                    <mxGeometry x="220" width="29" height="28" as="geometry">
                        <mxRectangle width="29" height="28" as="alternateBounds"/>
                    </mxGeometry>
                </mxCell>
                <mxCell id="Dux-7o8v0CumdMAZQHKP-210" value="69" style="shape=partialRectangle;html=1;whiteSpace=wrap;connectable=0;fillColor=#FF9999;top=0;left=0;bottom=0;right=0;overflow=hidden;pointerEvents=1;strokeWidth=1;fontStyle=1" parent="Dux-7o8v0CumdMAZQHKP-200" vertex="1">
                    <mxGeometry x="249" width="26" height="28" as="geometry">
                        <mxRectangle width="26" height="28" as="alternateBounds"/>
                    </mxGeometry>
                </mxCell>
                <mxCell id="Dux-7o8v0CumdMAZQHKP-211" value="70" style="shape=partialRectangle;html=1;whiteSpace=wrap;connectable=0;fillColor=#FF9999;top=0;left=0;bottom=0;right=0;overflow=hidden;pointerEvents=1;strokeWidth=1;fontStyle=1" parent="Dux-7o8v0CumdMAZQHKP-200" vertex="1">
                    <mxGeometry x="275" width="27" height="28" as="geometry">
                        <mxRectangle width="27" height="28" as="alternateBounds"/>
                    </mxGeometry>
                </mxCell>
                <mxCell id="Dux-7o8v0CumdMAZQHKP-212" value="71" style="shape=partialRectangle;html=1;whiteSpace=wrap;connectable=0;fillColor=#FF9999;top=0;left=0;bottom=0;right=0;overflow=hidden;pointerEvents=1;strokeWidth=1;fontStyle=1" parent="Dux-7o8v0CumdMAZQHKP-200" vertex="1">
                    <mxGeometry x="302" width="29" height="28" as="geometry">
                        <mxRectangle width="29" height="28" as="alternateBounds"/>
                    </mxGeometry>
                </mxCell>
                <mxCell id="Dux-7o8v0CumdMAZQHKP-213" value="0" style="shape=partialRectangle;html=1;whiteSpace=wrap;connectable=0;fillColor=#FF9999;top=0;left=0;bottom=0;right=0;overflow=hidden;pointerEvents=1;strokeWidth=1;fontStyle=1" parent="Dux-7o8v0CumdMAZQHKP-200" vertex="1">
                    <mxGeometry x="331" width="27" height="28" as="geometry">
                        <mxRectangle width="27" height="28" as="alternateBounds"/>
                    </mxGeometry>
                </mxCell>
                <mxCell id="Dux-7o8v0CumdMAZQHKP-214" value="0" style="shape=partialRectangle;html=1;whiteSpace=wrap;connectable=0;fillColor=#FF9999;top=0;left=0;bottom=0;right=0;overflow=hidden;pointerEvents=1;strokeWidth=1;fontStyle=1" parent="Dux-7o8v0CumdMAZQHKP-200" vertex="1">
                    <mxGeometry x="358" width="27" height="28" as="geometry">
                        <mxRectangle width="27" height="28" as="alternateBounds"/>
                    </mxGeometry>
                </mxCell>
                <mxCell id="Dux-7o8v0CumdMAZQHKP-215" value="0" style="shape=partialRectangle;html=1;whiteSpace=wrap;connectable=0;fillColor=#FF9999;top=0;left=0;bottom=0;right=0;overflow=hidden;pointerEvents=1;strokeWidth=1;fontStyle=1" parent="Dux-7o8v0CumdMAZQHKP-200" vertex="1">
                    <mxGeometry x="385" width="26" height="28" as="geometry">
                        <mxRectangle width="26" height="28" as="alternateBounds"/>
                    </mxGeometry>
                </mxCell>
                <mxCell id="Dux-7o8v0CumdMAZQHKP-216" value="0" style="shape=partialRectangle;html=1;whiteSpace=wrap;connectable=0;fillColor=#FF9999;top=0;left=0;bottom=0;right=0;overflow=hidden;pointerEvents=1;strokeWidth=1;fontStyle=1" parent="Dux-7o8v0CumdMAZQHKP-200" vertex="1">
                    <mxGeometry x="411" width="29" height="28" as="geometry">
                        <mxRectangle width="29" height="28" as="alternateBounds"/>
                    </mxGeometry>
                </mxCell>
                <mxCell id="Dux-7o8v0CumdMAZQHKP-6" value="" style="shape=partialRectangle;html=1;whiteSpace=wrap;collapsible=0;dropTarget=0;pointerEvents=0;fillColor=none;top=0;left=0;bottom=0;right=0;points=[[0,0.5],[1,0.5]];portConstraint=eastwest;strokeWidth=1;fontStyle=1" parent="Dux-7o8v0CumdMAZQHKP-1" vertex="1">
                    <mxGeometry y="171" width="440" height="28" as="geometry"/>
                </mxCell>
                <mxCell id="Dux-7o8v0CumdMAZQHKP-7" value="0" style="shape=partialRectangle;html=1;whiteSpace=wrap;connectable=0;fillColor=#FFFFCC;top=0;left=0;bottom=0;right=0;overflow=hidden;pointerEvents=1;strokeWidth=1;fontStyle=1" parent="Dux-7o8v0CumdMAZQHKP-6" vertex="1">
                    <mxGeometry width="29" height="28" as="geometry">
                        <mxRectangle width="29" height="28" as="alternateBounds"/>
                    </mxGeometry>
                </mxCell>
                <mxCell id="Dux-7o8v0CumdMAZQHKP-8" value="0" style="shape=partialRectangle;html=1;whiteSpace=wrap;connectable=0;fillColor=#FFFFCC;top=0;left=0;bottom=0;right=0;overflow=hidden;pointerEvents=1;strokeWidth=1;fontStyle=1" parent="Dux-7o8v0CumdMAZQHKP-6" vertex="1">
                    <mxGeometry x="29" width="26" height="28" as="geometry">
                        <mxRectangle width="26" height="28" as="alternateBounds"/>
                    </mxGeometry>
                </mxCell>
                <mxCell id="Dux-7o8v0CumdMAZQHKP-15" value="0" style="shape=partialRectangle;html=1;whiteSpace=wrap;connectable=0;fillColor=#FFFFCC;top=0;left=0;bottom=0;right=0;overflow=hidden;pointerEvents=1;strokeWidth=1;fontStyle=1" parent="Dux-7o8v0CumdMAZQHKP-6" vertex="1">
                    <mxGeometry x="55" width="27" height="28" as="geometry">
                        <mxRectangle width="27" height="28" as="alternateBounds"/>
                    </mxGeometry>
                </mxCell>
                <mxCell id="Dux-7o8v0CumdMAZQHKP-18" value="0" style="shape=partialRectangle;html=1;whiteSpace=wrap;connectable=0;fillColor=#FFFFCC;top=0;left=0;bottom=0;right=0;overflow=hidden;pointerEvents=1;strokeWidth=1;fontStyle=1" parent="Dux-7o8v0CumdMAZQHKP-6" vertex="1">
                    <mxGeometry x="82" width="29" height="28" as="geometry">
                        <mxRectangle width="29" height="28" as="alternateBounds"/>
                    </mxGeometry>
                </mxCell>
                <mxCell id="Dux-7o8v0CumdMAZQHKP-21" value="0" style="shape=partialRectangle;html=1;whiteSpace=wrap;connectable=0;fillColor=#FFFFCC;top=0;left=0;bottom=0;right=0;overflow=hidden;pointerEvents=1;strokeWidth=1;fontStyle=1" parent="Dux-7o8v0CumdMAZQHKP-6" vertex="1">
                    <mxGeometry x="111" width="27" height="28" as="geometry">
                        <mxRectangle width="27" height="28" as="alternateBounds"/>
                    </mxGeometry>
                </mxCell>
                <mxCell id="Dux-7o8v0CumdMAZQHKP-24" value="0" style="shape=partialRectangle;html=1;whiteSpace=wrap;connectable=0;fillColor=#FFFFCC;top=0;left=0;bottom=0;right=0;overflow=hidden;pointerEvents=1;strokeWidth=1;fontStyle=1" parent="Dux-7o8v0CumdMAZQHKP-6" vertex="1">
                    <mxGeometry x="138" width="27" height="28" as="geometry">
                        <mxRectangle width="27" height="28" as="alternateBounds"/>
                    </mxGeometry>
                </mxCell>
                <mxCell id="Dux-7o8v0CumdMAZQHKP-27" value="0" style="shape=partialRectangle;html=1;whiteSpace=wrap;connectable=0;fillColor=#FFFFCC;top=0;left=0;bottom=0;right=0;overflow=hidden;pointerEvents=1;strokeWidth=1;fontStyle=1" parent="Dux-7o8v0CumdMAZQHKP-6" vertex="1">
                    <mxGeometry x="165" width="26" height="28" as="geometry">
                        <mxRectangle width="26" height="28" as="alternateBounds"/>
                    </mxGeometry>
                </mxCell>
                <mxCell id="Dux-7o8v0CumdMAZQHKP-30" value="0" style="shape=partialRectangle;html=1;whiteSpace=wrap;connectable=0;fillColor=#FFFFCC;top=0;left=0;bottom=0;right=0;overflow=hidden;pointerEvents=1;strokeWidth=1;fontStyle=1" parent="Dux-7o8v0CumdMAZQHKP-6" vertex="1">
                    <mxGeometry x="191" width="29" height="28" as="geometry">
                        <mxRectangle width="29" height="28" as="alternateBounds"/>
                    </mxGeometry>
                </mxCell>
                <mxCell id="Dux-7o8v0CumdMAZQHKP-33" value="0" style="shape=partialRectangle;html=1;whiteSpace=wrap;connectable=0;fillColor=#FF9999;top=0;left=0;bottom=0;right=0;overflow=hidden;pointerEvents=1;strokeWidth=1;fontStyle=1" parent="Dux-7o8v0CumdMAZQHKP-6" vertex="1">
                    <mxGeometry x="220" width="29" height="28" as="geometry">
                        <mxRectangle width="29" height="28" as="alternateBounds"/>
                    </mxGeometry>
                </mxCell>
                <mxCell id="Dux-7o8v0CumdMAZQHKP-36" value="0" style="shape=partialRectangle;html=1;whiteSpace=wrap;connectable=0;fillColor=#FF9999;top=0;left=0;bottom=0;right=0;overflow=hidden;pointerEvents=1;strokeWidth=1;fontStyle=1" parent="Dux-7o8v0CumdMAZQHKP-6" vertex="1">
                    <mxGeometry x="249" width="26" height="28" as="geometry">
                        <mxRectangle width="26" height="28" as="alternateBounds"/>
                    </mxGeometry>
                </mxCell>
                <mxCell id="Dux-7o8v0CumdMAZQHKP-39" value="0" style="shape=partialRectangle;html=1;whiteSpace=wrap;connectable=0;fillColor=#FF9999;top=0;left=0;bottom=0;right=0;overflow=hidden;pointerEvents=1;strokeWidth=1;fontStyle=1" parent="Dux-7o8v0CumdMAZQHKP-6" vertex="1">
                    <mxGeometry x="275" width="27" height="28" as="geometry">
                        <mxRectangle width="27" height="28" as="alternateBounds"/>
                    </mxGeometry>
                </mxCell>
                <mxCell id="Dux-7o8v0CumdMAZQHKP-42" value="0" style="shape=partialRectangle;html=1;whiteSpace=wrap;connectable=0;fillColor=#FF9999;top=0;left=0;bottom=0;right=0;overflow=hidden;pointerEvents=1;strokeWidth=1;fontStyle=1" parent="Dux-7o8v0CumdMAZQHKP-6" vertex="1">
                    <mxGeometry x="302" width="29" height="28" as="geometry">
                        <mxRectangle width="29" height="28" as="alternateBounds"/>
                    </mxGeometry>
                </mxCell>
                <mxCell id="Dux-7o8v0CumdMAZQHKP-45" value="0" style="shape=partialRectangle;html=1;whiteSpace=wrap;connectable=0;fillColor=#FF9999;top=0;left=0;bottom=0;right=0;overflow=hidden;pointerEvents=1;strokeWidth=1;fontStyle=1" parent="Dux-7o8v0CumdMAZQHKP-6" vertex="1">
                    <mxGeometry x="331" width="27" height="28" as="geometry">
                        <mxRectangle width="27" height="28" as="alternateBounds"/>
                    </mxGeometry>
                </mxCell>
                <mxCell id="Dux-7o8v0CumdMAZQHKP-48" value="0" style="shape=partialRectangle;html=1;whiteSpace=wrap;connectable=0;fillColor=#FF9999;top=0;left=0;bottom=0;right=0;overflow=hidden;pointerEvents=1;strokeWidth=1;fontStyle=1" parent="Dux-7o8v0CumdMAZQHKP-6" vertex="1">
                    <mxGeometry x="358" width="27" height="28" as="geometry">
                        <mxRectangle width="27" height="28" as="alternateBounds"/>
                    </mxGeometry>
                </mxCell>
                <mxCell id="Dux-7o8v0CumdMAZQHKP-51" value="0" style="shape=partialRectangle;html=1;whiteSpace=wrap;connectable=0;fillColor=#FF9999;top=0;left=0;bottom=0;right=0;overflow=hidden;pointerEvents=1;strokeWidth=1;fontStyle=1" parent="Dux-7o8v0CumdMAZQHKP-6" vertex="1">
                    <mxGeometry x="385" width="26" height="28" as="geometry">
                        <mxRectangle width="26" height="28" as="alternateBounds"/>
                    </mxGeometry>
                </mxCell>
                <mxCell id="Dux-7o8v0CumdMAZQHKP-57" value="0" style="shape=partialRectangle;html=1;whiteSpace=wrap;connectable=0;fillColor=#FF9999;top=0;left=0;bottom=0;right=0;overflow=hidden;pointerEvents=1;strokeWidth=1;fontStyle=1" parent="Dux-7o8v0CumdMAZQHKP-6" vertex="1">
                    <mxGeometry x="411" width="29" height="28" as="geometry">
                        <mxRectangle width="29" height="28" as="alternateBounds"/>
                    </mxGeometry>
                </mxCell>
                <mxCell id="Dux-7o8v0CumdMAZQHKP-10" value="" style="shape=partialRectangle;html=1;whiteSpace=wrap;collapsible=0;dropTarget=0;pointerEvents=0;fillColor=none;top=0;left=0;bottom=0;right=0;points=[[0,0.5],[1,0.5]];portConstraint=eastwest;strokeWidth=1;fontStyle=1" parent="Dux-7o8v0CumdMAZQHKP-1" vertex="1">
                    <mxGeometry y="199" width="440" height="29" as="geometry"/>
                </mxCell>
                <mxCell id="Dux-7o8v0CumdMAZQHKP-11" value="0" style="shape=partialRectangle;html=1;whiteSpace=wrap;connectable=0;fillColor=#FFFFCC;top=0;left=0;bottom=0;right=0;overflow=hidden;pointerEvents=1;strokeWidth=1;fontStyle=1" parent="Dux-7o8v0CumdMAZQHKP-10" vertex="1">
                    <mxGeometry width="29" height="29" as="geometry">
                        <mxRectangle width="29" height="29" as="alternateBounds"/>
                    </mxGeometry>
                </mxCell>
                <mxCell id="Dux-7o8v0CumdMAZQHKP-12" value="0" style="shape=partialRectangle;html=1;whiteSpace=wrap;connectable=0;fillColor=#FFFFCC;top=0;left=0;bottom=0;right=0;overflow=hidden;pointerEvents=1;strokeWidth=1;fontStyle=1" parent="Dux-7o8v0CumdMAZQHKP-10" vertex="1">
                    <mxGeometry x="29" width="26" height="29" as="geometry">
                        <mxRectangle width="26" height="29" as="alternateBounds"/>
                    </mxGeometry>
                </mxCell>
                <mxCell id="Dux-7o8v0CumdMAZQHKP-16" value="0" style="shape=partialRectangle;html=1;whiteSpace=wrap;connectable=0;fillColor=#FFFFCC;top=0;left=0;bottom=0;right=0;overflow=hidden;pointerEvents=1;strokeWidth=1;fontStyle=1" parent="Dux-7o8v0CumdMAZQHKP-10" vertex="1">
                    <mxGeometry x="55" width="27" height="29" as="geometry">
                        <mxRectangle width="27" height="29" as="alternateBounds"/>
                    </mxGeometry>
                </mxCell>
                <mxCell id="Dux-7o8v0CumdMAZQHKP-19" value="0" style="shape=partialRectangle;html=1;whiteSpace=wrap;connectable=0;fillColor=#FFFFCC;top=0;left=0;bottom=0;right=0;overflow=hidden;pointerEvents=1;strokeWidth=1;fontStyle=1" parent="Dux-7o8v0CumdMAZQHKP-10" vertex="1">
                    <mxGeometry x="82" width="29" height="29" as="geometry">
                        <mxRectangle width="29" height="29" as="alternateBounds"/>
                    </mxGeometry>
                </mxCell>
                <mxCell id="Dux-7o8v0CumdMAZQHKP-22" value="0" style="shape=partialRectangle;html=1;whiteSpace=wrap;connectable=0;fillColor=#FFFFCC;top=0;left=0;bottom=0;right=0;overflow=hidden;pointerEvents=1;strokeWidth=1;fontStyle=1" parent="Dux-7o8v0CumdMAZQHKP-10" vertex="1">
                    <mxGeometry x="111" width="27" height="29" as="geometry">
                        <mxRectangle width="27" height="29" as="alternateBounds"/>
                    </mxGeometry>
                </mxCell>
                <mxCell id="Dux-7o8v0CumdMAZQHKP-25" value="0" style="shape=partialRectangle;html=1;whiteSpace=wrap;connectable=0;fillColor=#FFFFCC;top=0;left=0;bottom=0;right=0;overflow=hidden;pointerEvents=1;strokeWidth=1;fontStyle=1" parent="Dux-7o8v0CumdMAZQHKP-10" vertex="1">
                    <mxGeometry x="138" width="27" height="29" as="geometry">
                        <mxRectangle width="27" height="29" as="alternateBounds"/>
                    </mxGeometry>
                </mxCell>
                <mxCell id="Dux-7o8v0CumdMAZQHKP-28" value="0" style="shape=partialRectangle;html=1;whiteSpace=wrap;connectable=0;fillColor=#FFFFCC;top=0;left=0;bottom=0;right=0;overflow=hidden;pointerEvents=1;strokeWidth=1;fontStyle=1" parent="Dux-7o8v0CumdMAZQHKP-10" vertex="1">
                    <mxGeometry x="165" width="26" height="29" as="geometry">
                        <mxRectangle width="26" height="29" as="alternateBounds"/>
                    </mxGeometry>
                </mxCell>
                <mxCell id="Dux-7o8v0CumdMAZQHKP-31" value="0" style="shape=partialRectangle;html=1;whiteSpace=wrap;connectable=0;fillColor=#FFFFCC;top=0;left=0;bottom=0;right=0;overflow=hidden;pointerEvents=1;strokeWidth=1;fontStyle=1" parent="Dux-7o8v0CumdMAZQHKP-10" vertex="1">
                    <mxGeometry x="191" width="29" height="29" as="geometry">
                        <mxRectangle width="29" height="29" as="alternateBounds"/>
                    </mxGeometry>
                </mxCell>
                <mxCell id="Dux-7o8v0CumdMAZQHKP-34" value="0" style="shape=partialRectangle;html=1;whiteSpace=wrap;connectable=0;fillColor=#FF9999;top=0;left=0;bottom=0;right=0;overflow=hidden;pointerEvents=1;strokeWidth=1;fontStyle=1" parent="Dux-7o8v0CumdMAZQHKP-10" vertex="1">
                    <mxGeometry x="220" width="29" height="29" as="geometry">
                        <mxRectangle width="29" height="29" as="alternateBounds"/>
                    </mxGeometry>
                </mxCell>
                <mxCell id="Dux-7o8v0CumdMAZQHKP-37" value="0" style="shape=partialRectangle;html=1;whiteSpace=wrap;connectable=0;fillColor=#FF9999;top=0;left=0;bottom=0;right=0;overflow=hidden;pointerEvents=1;strokeWidth=1;fontStyle=1" parent="Dux-7o8v0CumdMAZQHKP-10" vertex="1">
                    <mxGeometry x="249" width="26" height="29" as="geometry">
                        <mxRectangle width="26" height="29" as="alternateBounds"/>
                    </mxGeometry>
                </mxCell>
                <mxCell id="Dux-7o8v0CumdMAZQHKP-40" value="0" style="shape=partialRectangle;html=1;whiteSpace=wrap;connectable=0;fillColor=#FF9999;top=0;left=0;bottom=0;right=0;overflow=hidden;pointerEvents=1;strokeWidth=1;fontStyle=1" parent="Dux-7o8v0CumdMAZQHKP-10" vertex="1">
                    <mxGeometry x="275" width="27" height="29" as="geometry">
                        <mxRectangle width="27" height="29" as="alternateBounds"/>
                    </mxGeometry>
                </mxCell>
                <mxCell id="Dux-7o8v0CumdMAZQHKP-43" value="0" style="shape=partialRectangle;html=1;whiteSpace=wrap;connectable=0;fillColor=#FF9999;top=0;left=0;bottom=0;right=0;overflow=hidden;pointerEvents=1;strokeWidth=1;fontStyle=1" parent="Dux-7o8v0CumdMAZQHKP-10" vertex="1">
                    <mxGeometry x="302" width="29" height="29" as="geometry">
                        <mxRectangle width="29" height="29" as="alternateBounds"/>
                    </mxGeometry>
                </mxCell>
                <mxCell id="Dux-7o8v0CumdMAZQHKP-46" value="0" style="shape=partialRectangle;html=1;whiteSpace=wrap;connectable=0;fillColor=#FF9999;top=0;left=0;bottom=0;right=0;overflow=hidden;pointerEvents=1;strokeWidth=1;fontStyle=1" parent="Dux-7o8v0CumdMAZQHKP-10" vertex="1">
                    <mxGeometry x="331" width="27" height="29" as="geometry">
                        <mxRectangle width="27" height="29" as="alternateBounds"/>
                    </mxGeometry>
                </mxCell>
                <mxCell id="Dux-7o8v0CumdMAZQHKP-49" value="0" style="shape=partialRectangle;html=1;whiteSpace=wrap;connectable=0;fillColor=#FF9999;top=0;left=0;bottom=0;right=0;overflow=hidden;pointerEvents=1;strokeWidth=1;fontStyle=1" parent="Dux-7o8v0CumdMAZQHKP-10" vertex="1">
                    <mxGeometry x="358" width="27" height="29" as="geometry">
                        <mxRectangle width="27" height="29" as="alternateBounds"/>
                    </mxGeometry>
                </mxCell>
                <mxCell id="Dux-7o8v0CumdMAZQHKP-52" value="0" style="shape=partialRectangle;html=1;whiteSpace=wrap;connectable=0;fillColor=#FF9999;top=0;left=0;bottom=0;right=0;overflow=hidden;pointerEvents=1;strokeWidth=1;fontStyle=1" parent="Dux-7o8v0CumdMAZQHKP-10" vertex="1">
                    <mxGeometry x="385" width="26" height="29" as="geometry">
                        <mxRectangle width="26" height="29" as="alternateBounds"/>
                    </mxGeometry>
                </mxCell>
                <mxCell id="Dux-7o8v0CumdMAZQHKP-58" value="0" style="shape=partialRectangle;html=1;whiteSpace=wrap;connectable=0;fillColor=#FF9999;top=0;left=0;bottom=0;right=0;overflow=hidden;pointerEvents=1;strokeWidth=1;fontStyle=1" parent="Dux-7o8v0CumdMAZQHKP-10" vertex="1">
                    <mxGeometry x="411" width="29" height="29" as="geometry">
                        <mxRectangle width="29" height="29" as="alternateBounds"/>
                    </mxGeometry>
                </mxCell>
                <mxCell id="Dux-7o8v0CumdMAZQHKP-218" value="" style="rounded=0;whiteSpace=wrap;html=1;strokeColor=#000000;strokeWidth=3;fillColor=none;fontStyle=1" parent="1" vertex="1">
                    <mxGeometry x="577.9100000000001" y="305" width="220" height="113" as="geometry"/>
                </mxCell>
                <mxCell id="Dux-7o8v0CumdMAZQHKP-219" value="" style="rounded=0;whiteSpace=wrap;html=1;strokeColor=#000000;strokeWidth=3;fillColor=none;fontStyle=1" parent="1" vertex="1">
                    <mxGeometry x="358" y="417" width="220" height="113" as="geometry"/>
                </mxCell>
                <mxCell id="Dux-7o8v0CumdMAZQHKP-220" value="" style="rounded=0;whiteSpace=wrap;html=1;strokeColor=#000000;strokeWidth=3;fillColor=none;fontStyle=1" parent="1" vertex="1">
                    <mxGeometry x="578" y="417" width="220" height="113" as="geometry"/>
                </mxCell>
                <mxCell id="Dux-7o8v0CumdMAZQHKP-217" value="" style="rounded=0;whiteSpace=wrap;html=1;strokeColor=#000000;strokeWidth=3;fillColor=none;fontStyle=1" parent="1" vertex="1">
                    <mxGeometry x="358" y="304" width="220" height="113" as="geometry"/>
                </mxCell>
                <mxCell id="Dux-7o8v0CumdMAZQHKP-221" value="" style="shape=curlyBracket;whiteSpace=wrap;html=1;rounded=1;strokeColor=#000000;strokeWidth=3;fillColor=none;rotation=90;fontStyle=1" parent="1" vertex="1">
                    <mxGeometry x="735" y="228" width="20" height="115" as="geometry"/>
                </mxCell>
                <mxCell id="Dux-7o8v0CumdMAZQHKP-222" value="" style="shape=curlyBracket;whiteSpace=wrap;html=1;rounded=1;strokeColor=#000000;strokeWidth=3;fillColor=none;rotation=90;fontStyle=1" parent="1" vertex="1">
                    <mxGeometry x="455" y="137" width="20" height="212" as="geometry"/>
                </mxCell>
                <mxCell id="Dux-7o8v0CumdMAZQHKP-223" value="" style="shape=curlyBracket;whiteSpace=wrap;html=1;rounded=1;strokeColor=#000000;strokeWidth=3;fillColor=none;rotation=90;fontStyle=1" parent="1" vertex="1">
                    <mxGeometry x="511" y="40" width="20" height="324" as="geometry"/>
                </mxCell>
                <mxCell id="Dux-7o8v0CumdMAZQHKP-224" value="" style="shape=curlyBracket;whiteSpace=wrap;html=1;rounded=1;strokeColor=#000000;strokeWidth=3;fillColor=none;rotation=0;fontStyle=1" parent="1" vertex="1">
                    <mxGeometry x="327" y="304" width="20" height="115" as="geometry"/>
                </mxCell>
                <mxCell id="Dux-7o8v0CumdMAZQHKP-225" value="" style="shape=curlyBracket;whiteSpace=wrap;html=1;rounded=1;strokeColor=#000000;strokeWidth=3;fillColor=none;rotation=0;fontStyle=1" parent="1" vertex="1">
                    <mxGeometry x="268" y="303" width="20" height="164" as="geometry"/>
                </mxCell>
                <mxCell id="Dux-7o8v0CumdMAZQHKP-226" value="C = 3" style="text;html=1;strokeColor=none;fillColor=none;align=center;verticalAlign=middle;whiteSpace=wrap;rounded=0;fontStyle=1" parent="1" vertex="1">
                    <mxGeometry x="492" y="164" width="60" height="30" as="geometry"/>
                </mxCell>
                <mxCell id="Dux-7o8v0CumdMAZQHKP-227" value="" style="shape=curlyBracket;whiteSpace=wrap;html=1;rounded=1;strokeColor=#000000;strokeWidth=3;fillColor=none;rotation=-180;fontStyle=1" parent="1" vertex="1">
                    <mxGeometry x="812" y="473" width="20" height="52" as="geometry"/>
                </mxCell>
                <mxCell id="Dux-7o8v0CumdMAZQHKP-228" value="" style="shape=curlyBracket;whiteSpace=wrap;html=1;rounded=1;strokeColor=#000000;strokeWidth=3;fillColor=none;rotation=90;fontStyle=1" parent="1" vertex="1">
                    <mxGeometry x="407" y="222" width="20" height="115" as="geometry"/>
                </mxCell>
                <mxCell id="Dux-7o8v0CumdMAZQHKP-229" value="C_UNROLL = 8" style="text;html=1;strokeColor=none;fillColor=none;align=center;verticalAlign=middle;whiteSpace=wrap;rounded=0;fontStyle=1" parent="1" vertex="1">
                    <mxGeometry x="411.5" y="206" width="107" height="30" as="geometry"/>
                </mxCell>
                <mxCell id="Dux-7o8v0CumdMAZQHKP-230" value="K_UNROLL² = 4" style="text;html=1;strokeColor=none;fillColor=none;align=center;verticalAlign=middle;whiteSpace=wrap;rounded=0;fontStyle=1" parent="1" vertex="1">
                    <mxGeometry x="363.5" y="246" width="107" height="30" as="geometry"/>
                </mxCell>
                <mxCell id="Dux-7o8v0CumdMAZQHKP-231" value="F_UNROLL = 4" style="text;html=1;strokeColor=none;fillColor=none;align=center;verticalAlign=middle;whiteSpace=wrap;rounded=0;horizontal=0;fontStyle=1" parent="1" vertex="1">
                    <mxGeometry x="296" y="313.5" width="31" height="96" as="geometry"/>
                </mxCell>
                <mxCell id="Dux-7o8v0CumdMAZQHKP-232" value="F = 6" style="text;html=1;strokeColor=none;fillColor=none;align=center;verticalAlign=middle;whiteSpace=wrap;rounded=0;horizontal=0;fontStyle=1" parent="1" vertex="1">
                    <mxGeometry x="240" y="337" width="31" height="96" as="geometry"/>
                </mxCell>
                <mxCell id="Dux-7o8v0CumdMAZQHKP-233" value="C_PADDING = 1" style="text;html=1;strokeColor=none;fillColor=none;align=center;verticalAlign=middle;whiteSpace=wrap;rounded=0;fontStyle=1" parent="1" vertex="1">
                    <mxGeometry x="689.71" y="247" width="107" height="30" as="geometry"/>
                </mxCell>
                <mxCell id="Dux-7o8v0CumdMAZQHKP-234" value="F_PADDING = 2" style="text;html=1;strokeColor=none;fillColor=none;align=center;verticalAlign=middle;whiteSpace=wrap;rounded=0;horizontal=0;fontStyle=1" parent="1" vertex="1">
                    <mxGeometry x="829" y="449" width="31" height="96" as="geometry"/>
                </mxCell>
                <mxCell id="Dux-7o8v0CumdMAZQHKP-235" value="" style="curved=1;endArrow=classic;html=1;strokeWidth=3;strokeColor=#990000;fontStyle=1" parent="1" edge="1">
                    <mxGeometry width="50" height="50" relative="1" as="geometry">
                        <mxPoint x="353" y="299" as="sourcePoint"/>
                        <mxPoint x="266" y="236" as="targetPoint"/>
                        <Array as="points">
                            <mxPoint x="319" y="283"/>
                            <mxPoint x="316" y="237"/>
                        </Array>
                    </mxGeometry>
                </mxCell>
                <mxCell id="Dux-7o8v0CumdMAZQHKP-236" value="UnPadded Utilization" style="text;html=1;strokeColor=none;fillColor=none;align=center;verticalAlign=middle;whiteSpace=wrap;rounded=0;fontStyle=1" parent="1" vertex="1">
                    <mxGeometry x="200" y="217" width="60" height="30" as="geometry"/>
                </mxCell>
                <mxCell id="tj0ak_F37GdJPDLlOLxo-84" value="" style="shape=cube;whiteSpace=wrap;html=1;boundedLbl=1;backgroundOutline=1;darkOpacity=0.05;darkOpacity2=0.1;strokeColor=default;strokeWidth=3;fillColor=#67AB9F;size=11;fontStyle=1" parent="1" vertex="1">
                    <mxGeometry x="391.21000000000004" y="662.7599999999999" width="29.5" height="30.82" as="geometry"/>
                </mxCell>
                <mxCell id="tj0ak_F37GdJPDLlOLxo-200" value="" style="shape=curlyBracket;whiteSpace=wrap;html=1;rounded=1;strokeColor=#000000;strokeWidth=3;fillColor=none;rotation=-90;fontStyle=1" parent="1" vertex="1">
                    <mxGeometry x="577.91" y="500" width="20" height="477" as="geometry"/>
                </mxCell>
                <mxCell id="tj0ak_F37GdJPDLlOLxo-201" value="F = 6" style="text;html=1;strokeColor=none;fillColor=none;align=center;verticalAlign=middle;whiteSpace=wrap;rounded=0;fontStyle=1" parent="1" vertex="1">
                    <mxGeometry x="558.9100000000001" y="752.04" width="31" height="30" as="geometry"/>
                </mxCell>
                <mxCell id="tj0ak_F37GdJPDLlOLxo-202" value="" style="shape=curlyBracket;whiteSpace=wrap;html=1;rounded=1;strokeColor=#000000;strokeWidth=3;fillColor=none;rotation=-90;size=0.5;fontStyle=1" parent="1" vertex="1">
                    <mxGeometry x="395.59" y="685.35" width="14" height="39.17" as="geometry"/>
                </mxCell>
                <mxCell id="tj0ak_F37GdJPDLlOLxo-203" value="K = 2" style="text;html=1;strokeColor=none;fillColor=none;align=center;verticalAlign=middle;whiteSpace=wrap;rounded=0;fontStyle=1" parent="1" vertex="1">
                    <mxGeometry x="385.52" y="702.29" width="34.14" height="30" as="geometry"/>
                </mxCell>
                <mxCell id="tj0ak_F37GdJPDLlOLxo-204" value="" style="shape=curlyBracket;whiteSpace=wrap;html=1;rounded=1;strokeColor=#000000;strokeWidth=3;fillColor=none;rotation=-45;size=0.5;fontStyle=1" parent="1" vertex="1">
                    <mxGeometry x="341" y="658.35" width="20" height="56.79" as="geometry"/>
                </mxCell>
                <mxCell id="tj0ak_F37GdJPDLlOLxo-205" value="C = 3" style="text;html=1;strokeColor=none;fillColor=none;align=center;verticalAlign=middle;whiteSpace=wrap;rounded=0;fontStyle=1" parent="1" vertex="1">
                    <mxGeometry x="312.86" y="689.9399999999999" width="34.14" height="30" as="geometry"/>
                </mxCell>
                <mxCell id="tj0ak_F37GdJPDLlOLxo-206" value="" style="shape=curlyBracket;whiteSpace=wrap;html=1;rounded=1;strokeColor=#000000;strokeWidth=3;fillColor=none;rotation=-180;size=0.5;fontStyle=1" parent="1" vertex="1">
                    <mxGeometry x="427" y="655.15" width="20" height="37" as="geometry"/>
                </mxCell>
                <mxCell id="tj0ak_F37GdJPDLlOLxo-207" value="K = 2" style="text;html=1;strokeColor=none;fillColor=none;align=center;verticalAlign=middle;whiteSpace=wrap;rounded=0;fontStyle=1" parent="1" vertex="1">
                    <mxGeometry x="440.49" y="671.74" width="32.51" height="30" as="geometry"/>
                </mxCell>
                <mxCell id="tj0ak_F37GdJPDLlOLxo-232" value="" style="shape=cube;whiteSpace=wrap;html=1;boundedLbl=1;backgroundOutline=1;darkOpacity=0.05;darkOpacity2=0.1;strokeColor=default;strokeWidth=3;fillColor=#67AB9F;size=11;fontStyle=1" parent="1" vertex="1">
                    <mxGeometry x="371.55000000000007" y="662.7599999999999" width="29.5" height="30.82" as="geometry"/>
                </mxCell>
                <mxCell id="tj0ak_F37GdJPDLlOLxo-235" value="" style="shape=cube;whiteSpace=wrap;html=1;boundedLbl=1;backgroundOutline=1;darkOpacity=0.05;darkOpacity2=0.1;strokeColor=default;strokeWidth=3;fillColor=#67AB9F;size=11;fontStyle=1" parent="1" vertex="1">
                    <mxGeometry x="391.25" y="642.7499999999999" width="29.5" height="30.82" as="geometry"/>
                </mxCell>
                <mxCell id="tj0ak_F37GdJPDLlOLxo-233" value="" style="shape=cube;whiteSpace=wrap;html=1;boundedLbl=1;backgroundOutline=1;darkOpacity=0.05;darkOpacity2=0.1;strokeColor=default;strokeWidth=3;fillColor=#67AB9F;size=11;fontStyle=1" parent="1" vertex="1">
                    <mxGeometry x="371.55000000000007" y="642.7499999999999" width="29.5" height="30.82" as="geometry"/>
                </mxCell>
                <mxCell id="tj0ak_F37GdJPDLlOLxo-244" value="" style="shape=cube;whiteSpace=wrap;html=1;boundedLbl=1;backgroundOutline=1;darkOpacity=0.05;darkOpacity2=0.1;strokeColor=default;strokeWidth=3;fillColor=#CC0066;size=11;fontStyle=1" parent="1" vertex="1">
                    <mxGeometry x="484.2900000000001" y="641.9399999999998" width="29.5" height="30.82" as="geometry"/>
                </mxCell>
                <mxCell id="tj0ak_F37GdJPDLlOLxo-245" value="" style="shape=cube;whiteSpace=wrap;html=1;boundedLbl=1;backgroundOutline=1;darkOpacity=0.05;darkOpacity2=0.1;strokeColor=default;strokeWidth=3;fillColor=#CC0066;size=11;fontStyle=1" parent="1" vertex="1">
                    <mxGeometry x="464.6300000000001" y="641.9399999999998" width="29.5" height="30.82" as="geometry"/>
                </mxCell>
                <mxCell id="tj0ak_F37GdJPDLlOLxo-246" value="" style="shape=cube;whiteSpace=wrap;html=1;boundedLbl=1;backgroundOutline=1;darkOpacity=0.05;darkOpacity2=0.1;strokeColor=default;strokeWidth=3;fillColor=#CC0066;size=11;fontStyle=1" parent="1" vertex="1">
                    <mxGeometry x="484.33000000000004" y="621.9299999999998" width="29.5" height="30.82" as="geometry"/>
                </mxCell>
                <mxCell id="tj0ak_F37GdJPDLlOLxo-247" value="" style="shape=cube;whiteSpace=wrap;html=1;boundedLbl=1;backgroundOutline=1;darkOpacity=0.05;darkOpacity2=0.1;strokeColor=default;strokeWidth=3;fillColor=#CC0066;size=11;fontStyle=1" parent="1" vertex="1">
                    <mxGeometry x="464.6300000000001" y="621.9299999999998" width="29.5" height="30.82" as="geometry"/>
                </mxCell>
                <mxCell id="tj0ak_F37GdJPDLlOLxo-248" value="" style="shape=cube;whiteSpace=wrap;html=1;boundedLbl=1;backgroundOutline=1;darkOpacity=0.05;darkOpacity2=0.1;strokeColor=default;strokeWidth=3;fillColor=#CC0066;size=11;fontStyle=1" parent="1" vertex="1">
                    <mxGeometry x="494.2900000000001" y="651.9399999999998" width="29.5" height="30.82" as="geometry"/>
                </mxCell>
                <mxCell id="tj0ak_F37GdJPDLlOLxo-249" value="" style="shape=cube;whiteSpace=wrap;html=1;boundedLbl=1;backgroundOutline=1;darkOpacity=0.05;darkOpacity2=0.1;strokeColor=default;strokeWidth=3;fillColor=#CC0066;size=11;fontStyle=1" parent="1" vertex="1">
                    <mxGeometry x="474.6300000000001" y="651.9399999999998" width="29.5" height="30.82" as="geometry"/>
                </mxCell>
                <mxCell id="tj0ak_F37GdJPDLlOLxo-250" value="" style="shape=cube;whiteSpace=wrap;html=1;boundedLbl=1;backgroundOutline=1;darkOpacity=0.05;darkOpacity2=0.1;strokeColor=default;strokeWidth=3;fillColor=#CC0066;size=11;fontStyle=1" parent="1" vertex="1">
                    <mxGeometry x="494.33000000000004" y="631.9299999999998" width="29.5" height="30.82" as="geometry"/>
                </mxCell>
                <mxCell id="tj0ak_F37GdJPDLlOLxo-251" value="" style="shape=cube;whiteSpace=wrap;html=1;boundedLbl=1;backgroundOutline=1;darkOpacity=0.05;darkOpacity2=0.1;strokeColor=default;strokeWidth=3;fillColor=#CC0066;size=11;fontStyle=1" parent="1" vertex="1">
                    <mxGeometry x="474.6300000000001" y="631.9299999999998" width="29.5" height="30.82" as="geometry"/>
                </mxCell>
                <mxCell id="tj0ak_F37GdJPDLlOLxo-252" value="" style="shape=cube;whiteSpace=wrap;html=1;boundedLbl=1;backgroundOutline=1;darkOpacity=0.05;darkOpacity2=0.1;strokeColor=default;strokeWidth=3;fillColor=#CC0066;size=11;fontStyle=1" parent="1" vertex="1">
                    <mxGeometry x="504.84000000000003" y="662.7599999999999" width="29.5" height="30.82" as="geometry"/>
                </mxCell>
                <mxCell id="tj0ak_F37GdJPDLlOLxo-253" value="" style="shape=cube;whiteSpace=wrap;html=1;boundedLbl=1;backgroundOutline=1;darkOpacity=0.05;darkOpacity2=0.1;strokeColor=default;strokeWidth=3;fillColor=#CC0066;size=11;fontStyle=1" parent="1" vertex="1">
                    <mxGeometry x="485.18000000000006" y="662.7599999999999" width="29.5" height="30.82" as="geometry"/>
                </mxCell>
                <mxCell id="tj0ak_F37GdJPDLlOLxo-254" value="" style="shape=cube;whiteSpace=wrap;html=1;boundedLbl=1;backgroundOutline=1;darkOpacity=0.05;darkOpacity2=0.1;strokeColor=default;strokeWidth=3;fillColor=#CC0066;size=11;fontStyle=1" parent="1" vertex="1">
                    <mxGeometry x="504.88" y="642.7499999999999" width="29.5" height="30.82" as="geometry"/>
                </mxCell>
                <mxCell id="tj0ak_F37GdJPDLlOLxo-255" value="" style="shape=cube;whiteSpace=wrap;html=1;boundedLbl=1;backgroundOutline=1;darkOpacity=0.05;darkOpacity2=0.1;strokeColor=default;strokeWidth=3;fillColor=#CC0066;size=11;fontStyle=1" parent="1" vertex="1">
                    <mxGeometry x="485.18000000000006" y="642.7499999999999" width="29.5" height="30.82" as="geometry"/>
                </mxCell>
                <mxCell id="tj0ak_F37GdJPDLlOLxo-268" value="" style="shape=cube;whiteSpace=wrap;html=1;boundedLbl=1;backgroundOutline=1;darkOpacity=0.05;darkOpacity2=0.1;strokeColor=default;strokeWidth=3;fillColor=#FF8000;size=11;fontStyle=1" parent="1" vertex="1">
                    <mxGeometry x="559.0000000000001" y="641.7399999999998" width="29.5" height="30.82" as="geometry"/>
                </mxCell>
                <mxCell id="tj0ak_F37GdJPDLlOLxo-269" value="" style="shape=cube;whiteSpace=wrap;html=1;boundedLbl=1;backgroundOutline=1;darkOpacity=0.05;darkOpacity2=0.1;strokeColor=default;strokeWidth=3;fillColor=#FF8000;size=11;fontStyle=1" parent="1" vertex="1">
                    <mxGeometry x="539.3400000000001" y="641.7399999999998" width="29.5" height="30.82" as="geometry"/>
                </mxCell>
                <mxCell id="tj0ak_F37GdJPDLlOLxo-270" value="" style="shape=cube;whiteSpace=wrap;html=1;boundedLbl=1;backgroundOutline=1;darkOpacity=0.05;darkOpacity2=0.1;strokeColor=default;strokeWidth=3;fillColor=#FF8000;size=11;fontStyle=1" parent="1" vertex="1">
                    <mxGeometry x="559.0400000000001" y="621.7299999999998" width="29.5" height="30.82" as="geometry"/>
                </mxCell>
                <mxCell id="tj0ak_F37GdJPDLlOLxo-271" value="" style="shape=cube;whiteSpace=wrap;html=1;boundedLbl=1;backgroundOutline=1;darkOpacity=0.05;darkOpacity2=0.1;strokeColor=default;strokeWidth=3;fillColor=#FF8000;size=11;fontStyle=1" parent="1" vertex="1">
                    <mxGeometry x="539.3400000000001" y="621.7299999999998" width="29.5" height="30.82" as="geometry"/>
                </mxCell>
                <mxCell id="tj0ak_F37GdJPDLlOLxo-272" value="" style="shape=cube;whiteSpace=wrap;html=1;boundedLbl=1;backgroundOutline=1;darkOpacity=0.05;darkOpacity2=0.1;strokeColor=default;strokeWidth=3;fillColor=#FF8000;size=11;fontStyle=1" parent="1" vertex="1">
                    <mxGeometry x="569.0000000000001" y="651.7399999999998" width="29.5" height="30.82" as="geometry"/>
                </mxCell>
                <mxCell id="tj0ak_F37GdJPDLlOLxo-273" value="" style="shape=cube;whiteSpace=wrap;html=1;boundedLbl=1;backgroundOutline=1;darkOpacity=0.05;darkOpacity2=0.1;strokeColor=default;strokeWidth=3;fillColor=#FF8000;size=11;fontStyle=1" parent="1" vertex="1">
                    <mxGeometry x="549.3400000000001" y="651.7399999999998" width="29.5" height="30.82" as="geometry"/>
                </mxCell>
                <mxCell id="tj0ak_F37GdJPDLlOLxo-274" value="" style="shape=cube;whiteSpace=wrap;html=1;boundedLbl=1;backgroundOutline=1;darkOpacity=0.05;darkOpacity2=0.1;strokeColor=default;strokeWidth=3;fillColor=#FF8000;size=11;fontStyle=1" parent="1" vertex="1">
                    <mxGeometry x="569.0400000000001" y="631.7299999999998" width="29.5" height="30.82" as="geometry"/>
                </mxCell>
                <mxCell id="tj0ak_F37GdJPDLlOLxo-275" value="" style="shape=cube;whiteSpace=wrap;html=1;boundedLbl=1;backgroundOutline=1;darkOpacity=0.05;darkOpacity2=0.1;strokeColor=default;strokeWidth=3;fillColor=#FF8000;size=11;fontStyle=1" parent="1" vertex="1">
                    <mxGeometry x="549.3400000000001" y="631.7299999999998" width="29.5" height="30.82" as="geometry"/>
                </mxCell>
                <mxCell id="tj0ak_F37GdJPDLlOLxo-276" value="" style="shape=cube;whiteSpace=wrap;html=1;boundedLbl=1;backgroundOutline=1;darkOpacity=0.05;darkOpacity2=0.1;strokeColor=default;strokeWidth=3;fillColor=#FF8000;size=11;fontStyle=1" parent="1" vertex="1">
                    <mxGeometry x="579.5500000000001" y="662.5599999999998" width="29.5" height="30.82" as="geometry"/>
                </mxCell>
                <mxCell id="tj0ak_F37GdJPDLlOLxo-277" value="" style="shape=cube;whiteSpace=wrap;html=1;boundedLbl=1;backgroundOutline=1;darkOpacity=0.05;darkOpacity2=0.1;strokeColor=default;strokeWidth=3;fillColor=#FF8000;size=11;fontStyle=1" parent="1" vertex="1">
                    <mxGeometry x="559.8900000000001" y="662.5599999999998" width="29.5" height="30.82" as="geometry"/>
                </mxCell>
                <mxCell id="tj0ak_F37GdJPDLlOLxo-278" value="" style="shape=cube;whiteSpace=wrap;html=1;boundedLbl=1;backgroundOutline=1;darkOpacity=0.05;darkOpacity2=0.1;strokeColor=default;strokeWidth=3;fillColor=#FF8000;size=11;fontStyle=1" parent="1" vertex="1">
                    <mxGeometry x="579.59" y="642.5499999999998" width="29.5" height="30.82" as="geometry"/>
                </mxCell>
                <mxCell id="tj0ak_F37GdJPDLlOLxo-279" value="" style="shape=cube;whiteSpace=wrap;html=1;boundedLbl=1;backgroundOutline=1;darkOpacity=0.05;darkOpacity2=0.1;strokeColor=default;strokeWidth=3;fillColor=#FF8000;size=11;fontStyle=1" parent="1" vertex="1">
                    <mxGeometry x="559.8900000000001" y="642.5499999999998" width="29.5" height="30.82" as="geometry"/>
                </mxCell>
                <mxCell id="tj0ak_F37GdJPDLlOLxo-280" value="" style="shape=cube;whiteSpace=wrap;html=1;boundedLbl=1;backgroundOutline=1;darkOpacity=0.05;darkOpacity2=0.1;strokeColor=default;strokeWidth=3;fillColor=#990000;size=11;fontStyle=1" parent="1" vertex="1">
                    <mxGeometry x="633.0000000000001" y="641.3299999999998" width="29.5" height="30.82" as="geometry"/>
                </mxCell>
                <mxCell id="tj0ak_F37GdJPDLlOLxo-281" value="" style="shape=cube;whiteSpace=wrap;html=1;boundedLbl=1;backgroundOutline=1;darkOpacity=0.05;darkOpacity2=0.1;strokeColor=default;strokeWidth=3;fillColor=#990000;size=11;fontStyle=1" parent="1" vertex="1">
                    <mxGeometry x="613.3400000000001" y="641.3299999999998" width="29.5" height="30.82" as="geometry"/>
                </mxCell>
                <mxCell id="tj0ak_F37GdJPDLlOLxo-282" value="" style="shape=cube;whiteSpace=wrap;html=1;boundedLbl=1;backgroundOutline=1;darkOpacity=0.05;darkOpacity2=0.1;strokeColor=default;strokeWidth=3;fillColor=#990000;size=11;fontStyle=1" parent="1" vertex="1">
                    <mxGeometry x="633.0400000000001" y="621.3199999999998" width="29.5" height="30.82" as="geometry"/>
                </mxCell>
                <mxCell id="tj0ak_F37GdJPDLlOLxo-283" value="" style="shape=cube;whiteSpace=wrap;html=1;boundedLbl=1;backgroundOutline=1;darkOpacity=0.05;darkOpacity2=0.1;strokeColor=default;strokeWidth=3;fillColor=#990000;size=11;fontStyle=1" parent="1" vertex="1">
                    <mxGeometry x="613.3400000000001" y="621.3199999999998" width="29.5" height="30.82" as="geometry"/>
                </mxCell>
                <mxCell id="tj0ak_F37GdJPDLlOLxo-284" value="" style="shape=cube;whiteSpace=wrap;html=1;boundedLbl=1;backgroundOutline=1;darkOpacity=0.05;darkOpacity2=0.1;strokeColor=default;strokeWidth=3;fillColor=#990000;size=11;fontStyle=1" parent="1" vertex="1">
                    <mxGeometry x="643.0000000000001" y="651.3299999999998" width="29.5" height="30.82" as="geometry"/>
                </mxCell>
                <mxCell id="tj0ak_F37GdJPDLlOLxo-285" value="" style="shape=cube;whiteSpace=wrap;html=1;boundedLbl=1;backgroundOutline=1;darkOpacity=0.05;darkOpacity2=0.1;strokeColor=default;strokeWidth=3;fillColor=#990000;size=11;fontStyle=1" parent="1" vertex="1">
                    <mxGeometry x="623.3400000000001" y="651.3299999999998" width="29.5" height="30.82" as="geometry"/>
                </mxCell>
                <mxCell id="tj0ak_F37GdJPDLlOLxo-286" value="" style="shape=cube;whiteSpace=wrap;html=1;boundedLbl=1;backgroundOutline=1;darkOpacity=0.05;darkOpacity2=0.1;strokeColor=default;strokeWidth=3;fillColor=#990000;size=11;fontStyle=1" parent="1" vertex="1">
                    <mxGeometry x="643.0400000000001" y="631.3199999999998" width="29.5" height="30.82" as="geometry"/>
                </mxCell>
                <mxCell id="tj0ak_F37GdJPDLlOLxo-287" value="" style="shape=cube;whiteSpace=wrap;html=1;boundedLbl=1;backgroundOutline=1;darkOpacity=0.05;darkOpacity2=0.1;strokeColor=default;strokeWidth=3;fillColor=#990000;size=11;fontStyle=1" parent="1" vertex="1">
                    <mxGeometry x="623.3400000000001" y="631.3199999999998" width="29.5" height="30.82" as="geometry"/>
                </mxCell>
                <mxCell id="tj0ak_F37GdJPDLlOLxo-288" value="" style="shape=cube;whiteSpace=wrap;html=1;boundedLbl=1;backgroundOutline=1;darkOpacity=0.05;darkOpacity2=0.1;strokeColor=default;strokeWidth=3;fillColor=#990000;size=11;fontStyle=1" parent="1" vertex="1">
                    <mxGeometry x="653.5500000000001" y="662.1499999999999" width="29.5" height="30.82" as="geometry"/>
                </mxCell>
                <mxCell id="tj0ak_F37GdJPDLlOLxo-289" value="" style="shape=cube;whiteSpace=wrap;html=1;boundedLbl=1;backgroundOutline=1;darkOpacity=0.05;darkOpacity2=0.1;strokeColor=default;strokeWidth=3;fillColor=#990000;size=11;fontStyle=1" parent="1" vertex="1">
                    <mxGeometry x="633.8900000000001" y="662.1499999999999" width="29.5" height="30.82" as="geometry"/>
                </mxCell>
                <mxCell id="tj0ak_F37GdJPDLlOLxo-290" value="" style="shape=cube;whiteSpace=wrap;html=1;boundedLbl=1;backgroundOutline=1;darkOpacity=0.05;darkOpacity2=0.1;strokeColor=default;strokeWidth=3;fillColor=#990000;size=11;fontStyle=1" parent="1" vertex="1">
                    <mxGeometry x="653.59" y="642.1399999999999" width="29.5" height="30.82" as="geometry"/>
                </mxCell>
                <mxCell id="tj0ak_F37GdJPDLlOLxo-291" value="" style="shape=cube;whiteSpace=wrap;html=1;boundedLbl=1;backgroundOutline=1;darkOpacity=0.05;darkOpacity2=0.1;strokeColor=default;strokeWidth=3;fillColor=#990000;size=11;fontStyle=1" parent="1" vertex="1">
                    <mxGeometry x="633.8900000000001" y="642.1399999999999" width="29.5" height="30.82" as="geometry"/>
                </mxCell>
                <mxCell id="tj0ak_F37GdJPDLlOLxo-292" value="" style="shape=cube;whiteSpace=wrap;html=1;boundedLbl=1;backgroundOutline=1;darkOpacity=0.05;darkOpacity2=0.1;strokeColor=default;strokeWidth=3;fillColor=#FFD966;size=11;fontStyle=1" parent="1" vertex="1">
                    <mxGeometry x="707.9100000000002" y="641.3299999999998" width="29.5" height="30.82" as="geometry"/>
                </mxCell>
                <mxCell id="tj0ak_F37GdJPDLlOLxo-293" value="" style="shape=cube;whiteSpace=wrap;html=1;boundedLbl=1;backgroundOutline=1;darkOpacity=0.05;darkOpacity2=0.1;strokeColor=default;strokeWidth=3;fillColor=#FFD966;size=11;fontStyle=1" parent="1" vertex="1">
                    <mxGeometry x="688.2500000000002" y="641.3299999999998" width="29.5" height="30.82" as="geometry"/>
                </mxCell>
                <mxCell id="tj0ak_F37GdJPDLlOLxo-294" value="" style="shape=cube;whiteSpace=wrap;html=1;boundedLbl=1;backgroundOutline=1;darkOpacity=0.05;darkOpacity2=0.1;strokeColor=default;strokeWidth=3;fillColor=#FFD966;size=11;fontStyle=1" parent="1" vertex="1">
                    <mxGeometry x="707.9500000000002" y="621.3199999999998" width="29.5" height="30.82" as="geometry"/>
                </mxCell>
                <mxCell id="tj0ak_F37GdJPDLlOLxo-295" value="" style="shape=cube;whiteSpace=wrap;html=1;boundedLbl=1;backgroundOutline=1;darkOpacity=0.05;darkOpacity2=0.1;strokeColor=default;strokeWidth=3;fillColor=#FFD966;size=11;fontStyle=1" parent="1" vertex="1">
                    <mxGeometry x="688.2500000000002" y="621.3199999999998" width="29.5" height="30.82" as="geometry"/>
                </mxCell>
                <mxCell id="tj0ak_F37GdJPDLlOLxo-296" value="" style="shape=cube;whiteSpace=wrap;html=1;boundedLbl=1;backgroundOutline=1;darkOpacity=0.05;darkOpacity2=0.1;strokeColor=default;strokeWidth=3;fillColor=#FFD966;size=11;fontStyle=1" parent="1" vertex="1">
                    <mxGeometry x="717.9100000000002" y="651.3299999999998" width="29.5" height="30.82" as="geometry"/>
                </mxCell>
                <mxCell id="tj0ak_F37GdJPDLlOLxo-297" value="" style="shape=cube;whiteSpace=wrap;html=1;boundedLbl=1;backgroundOutline=1;darkOpacity=0.05;darkOpacity2=0.1;strokeColor=default;strokeWidth=3;fillColor=#FFD966;size=11;fontStyle=1" parent="1" vertex="1">
                    <mxGeometry x="698.2500000000002" y="651.3299999999998" width="29.5" height="30.82" as="geometry"/>
                </mxCell>
                <mxCell id="tj0ak_F37GdJPDLlOLxo-298" value="" style="shape=cube;whiteSpace=wrap;html=1;boundedLbl=1;backgroundOutline=1;darkOpacity=0.05;darkOpacity2=0.1;strokeColor=default;strokeWidth=3;fillColor=#FFD966;size=11;fontStyle=1" parent="1" vertex="1">
                    <mxGeometry x="717.9500000000002" y="631.3199999999998" width="29.5" height="30.82" as="geometry"/>
                </mxCell>
                <mxCell id="tj0ak_F37GdJPDLlOLxo-299" value="" style="shape=cube;whiteSpace=wrap;html=1;boundedLbl=1;backgroundOutline=1;darkOpacity=0.05;darkOpacity2=0.1;strokeColor=default;strokeWidth=3;fillColor=#FFD966;size=11;fontStyle=1" parent="1" vertex="1">
                    <mxGeometry x="698.2500000000002" y="631.3199999999998" width="29.5" height="30.82" as="geometry"/>
                </mxCell>
                <mxCell id="tj0ak_F37GdJPDLlOLxo-300" value="" style="shape=cube;whiteSpace=wrap;html=1;boundedLbl=1;backgroundOutline=1;darkOpacity=0.05;darkOpacity2=0.1;strokeColor=default;strokeWidth=3;fillColor=#FFD966;size=11;fontStyle=1" parent="1" vertex="1">
                    <mxGeometry x="728.4600000000002" y="662.1499999999999" width="29.5" height="30.82" as="geometry"/>
                </mxCell>
                <mxCell id="tj0ak_F37GdJPDLlOLxo-301" value="" style="shape=cube;whiteSpace=wrap;html=1;boundedLbl=1;backgroundOutline=1;darkOpacity=0.05;darkOpacity2=0.1;strokeColor=default;strokeWidth=3;fillColor=#FFD966;size=11;fontStyle=1" parent="1" vertex="1">
                    <mxGeometry x="708.8000000000002" y="662.1499999999999" width="29.5" height="30.82" as="geometry"/>
                </mxCell>
                <mxCell id="tj0ak_F37GdJPDLlOLxo-302" value="" style="shape=cube;whiteSpace=wrap;html=1;boundedLbl=1;backgroundOutline=1;darkOpacity=0.05;darkOpacity2=0.1;strokeColor=default;strokeWidth=3;fillColor=#FFD966;size=11;fontStyle=1" parent="1" vertex="1">
                    <mxGeometry x="728.5000000000001" y="642.1399999999999" width="29.5" height="30.82" as="geometry"/>
                </mxCell>
                <mxCell id="tj0ak_F37GdJPDLlOLxo-303" value="" style="shape=cube;whiteSpace=wrap;html=1;boundedLbl=1;backgroundOutline=1;darkOpacity=0.05;darkOpacity2=0.1;strokeColor=default;strokeWidth=3;fillColor=#FFD966;size=11;fontStyle=1" parent="1" vertex="1">
                    <mxGeometry x="708.8000000000002" y="642.1399999999999" width="29.5" height="30.82" as="geometry"/>
                </mxCell>
                <mxCell id="tj0ak_F37GdJPDLlOLxo-304" value="" style="shape=cube;whiteSpace=wrap;html=1;boundedLbl=1;backgroundOutline=1;darkOpacity=0.05;darkOpacity2=0.1;strokeColor=default;strokeWidth=3;fillColor=#000066;size=11;fontStyle=1" parent="1" vertex="1">
                    <mxGeometry x="781.9100000000002" y="640.9199999999998" width="29.5" height="30.82" as="geometry"/>
                </mxCell>
                <mxCell id="tj0ak_F37GdJPDLlOLxo-305" value="" style="shape=cube;whiteSpace=wrap;html=1;boundedLbl=1;backgroundOutline=1;darkOpacity=0.05;darkOpacity2=0.1;strokeColor=default;strokeWidth=3;fillColor=#000066;size=11;fontStyle=1" parent="1" vertex="1">
                    <mxGeometry x="762.2500000000002" y="640.9199999999998" width="29.5" height="30.82" as="geometry"/>
                </mxCell>
                <mxCell id="tj0ak_F37GdJPDLlOLxo-306" value="" style="shape=cube;whiteSpace=wrap;html=1;boundedLbl=1;backgroundOutline=1;darkOpacity=0.05;darkOpacity2=0.1;strokeColor=default;strokeWidth=3;fillColor=#000066;size=11;fontStyle=1" parent="1" vertex="1">
                    <mxGeometry x="781.9500000000002" y="620.9099999999999" width="29.5" height="30.82" as="geometry"/>
                </mxCell>
                <mxCell id="tj0ak_F37GdJPDLlOLxo-307" value="" style="shape=cube;whiteSpace=wrap;html=1;boundedLbl=1;backgroundOutline=1;darkOpacity=0.05;darkOpacity2=0.1;strokeColor=default;strokeWidth=3;fillColor=#000066;size=11;fontStyle=1" parent="1" vertex="1">
                    <mxGeometry x="762.2500000000002" y="620.9099999999999" width="29.5" height="30.82" as="geometry"/>
                </mxCell>
                <mxCell id="tj0ak_F37GdJPDLlOLxo-308" value="" style="shape=cube;whiteSpace=wrap;html=1;boundedLbl=1;backgroundOutline=1;darkOpacity=0.05;darkOpacity2=0.1;strokeColor=default;strokeWidth=3;fillColor=#000066;size=11;fontStyle=1" parent="1" vertex="1">
                    <mxGeometry x="791.9100000000002" y="650.9199999999998" width="29.5" height="30.82" as="geometry"/>
                </mxCell>
                <mxCell id="tj0ak_F37GdJPDLlOLxo-309" value="" style="shape=cube;whiteSpace=wrap;html=1;boundedLbl=1;backgroundOutline=1;darkOpacity=0.05;darkOpacity2=0.1;strokeColor=default;strokeWidth=3;fillColor=#000066;size=11;fontStyle=1" parent="1" vertex="1">
                    <mxGeometry x="772.2500000000002" y="650.9199999999998" width="29.5" height="30.82" as="geometry"/>
                </mxCell>
                <mxCell id="tj0ak_F37GdJPDLlOLxo-310" value="" style="shape=cube;whiteSpace=wrap;html=1;boundedLbl=1;backgroundOutline=1;darkOpacity=0.05;darkOpacity2=0.1;strokeColor=default;strokeWidth=3;fillColor=#000066;size=11;fontStyle=1" parent="1" vertex="1">
                    <mxGeometry x="791.9500000000002" y="630.9099999999999" width="29.5" height="30.82" as="geometry"/>
                </mxCell>
                <mxCell id="tj0ak_F37GdJPDLlOLxo-311" value="" style="shape=cube;whiteSpace=wrap;html=1;boundedLbl=1;backgroundOutline=1;darkOpacity=0.05;darkOpacity2=0.1;strokeColor=default;strokeWidth=3;fillColor=#000066;size=11;fontStyle=1" parent="1" vertex="1">
                    <mxGeometry x="772.2500000000002" y="630.9099999999999" width="29.5" height="30.82" as="geometry"/>
                </mxCell>
                <mxCell id="tj0ak_F37GdJPDLlOLxo-312" value="" style="shape=cube;whiteSpace=wrap;html=1;boundedLbl=1;backgroundOutline=1;darkOpacity=0.05;darkOpacity2=0.1;strokeColor=default;strokeWidth=3;fillColor=#000066;size=11;fontStyle=1" parent="1" vertex="1">
                    <mxGeometry x="802.4600000000002" y="661.7399999999999" width="29.5" height="30.82" as="geometry"/>
                </mxCell>
                <mxCell id="tj0ak_F37GdJPDLlOLxo-313" value="" style="shape=cube;whiteSpace=wrap;html=1;boundedLbl=1;backgroundOutline=1;darkOpacity=0.05;darkOpacity2=0.1;strokeColor=default;strokeWidth=3;fillColor=#000066;size=11;fontStyle=1" parent="1" vertex="1">
                    <mxGeometry x="782.8000000000002" y="661.7399999999999" width="29.5" height="30.82" as="geometry"/>
                </mxCell>
                <mxCell id="tj0ak_F37GdJPDLlOLxo-314" value="" style="shape=cube;whiteSpace=wrap;html=1;boundedLbl=1;backgroundOutline=1;darkOpacity=0.05;darkOpacity2=0.1;strokeColor=default;strokeWidth=3;fillColor=#000066;size=11;fontStyle=1" parent="1" vertex="1">
                    <mxGeometry x="802.5000000000001" y="641.7299999999999" width="29.5" height="30.82" as="geometry"/>
                </mxCell>
                <mxCell id="tj0ak_F37GdJPDLlOLxo-315" value="" style="shape=cube;whiteSpace=wrap;html=1;boundedLbl=1;backgroundOutline=1;darkOpacity=0.05;darkOpacity2=0.1;strokeColor=default;strokeWidth=3;fillColor=#000066;size=11;fontStyle=1" parent="1" vertex="1">
                    <mxGeometry x="782.8000000000002" y="641.7299999999999" width="29.5" height="30.82" as="geometry"/>
                </mxCell>
                <mxCell id="tj0ak_F37GdJPDLlOLxo-316" value="" style="endArrow=classic;html=1;strokeColor=#990000;strokeWidth=6;fontStyle=1" parent="1" edge="1">
                    <mxGeometry width="50" height="50" relative="1" as="geometry">
                        <mxPoint x="577" y="600" as="sourcePoint"/>
                        <mxPoint x="577.3199999999999" y="545" as="targetPoint"/>
                    </mxGeometry>
                </mxCell>
                <mxCell id="tj0ak_F37GdJPDLlOLxo-317" value="Reshape" style="text;html=1;strokeColor=none;fillColor=none;align=center;verticalAlign=middle;whiteSpace=wrap;rounded=0;fontStyle=1" parent="1" vertex="1">
                    <mxGeometry x="506.94" y="550" width="52.95" height="30" as="geometry"/>
                </mxCell>
                <mxCell id="tj0ak_F37GdJPDLlOLxo-320" value="" style="endArrow=classic;html=1;strokeColor=#990000;strokeWidth=3;fontStyle=1" parent="1" edge="1">
                    <mxGeometry width="50" height="50" relative="1" as="geometry">
                        <mxPoint x="802.5" y="360.02" as="sourcePoint"/>
                        <mxPoint x="872.5" y="360.02" as="targetPoint"/>
                    </mxGeometry>
                </mxCell>
                <mxCell id="tj0ak_F37GdJPDLlOLxo-321" value="" style="endArrow=classic;html=1;strokeColor=#990000;strokeWidth=3;fontStyle=1" parent="1" edge="1">
                    <mxGeometry width="50" height="50" relative="1" as="geometry">
                        <mxPoint x="351" y="500" as="sourcePoint"/>
                        <mxPoint x="280" y="500" as="targetPoint"/>
                    </mxGeometry>
                </mxCell>
                <mxCell id="tj0ak_F37GdJPDLlOLxo-322" value="" style="curved=1;endArrow=classic;html=1;strokeWidth=3;strokeColor=#990000;fontStyle=1" parent="1" edge="1">
                    <mxGeometry width="50" height="50" relative="1" as="geometry">
                        <mxPoint x="750" y="540" as="sourcePoint"/>
                        <mxPoint x="900" y="580" as="targetPoint"/>
                        <Array as="points">
                            <mxPoint x="800" y="570"/>
                            <mxPoint x="890" y="540"/>
                        </Array>
                    </mxGeometry>
                </mxCell>
                <mxCell id="tj0ak_F37GdJPDLlOLxo-323" value="&lt;span&gt;Low utilization due to filter and channel padding&lt;/span&gt;" style="text;html=1;strokeColor=none;fillColor=none;align=center;verticalAlign=middle;whiteSpace=wrap;rounded=0;fontStyle=1" parent="1" vertex="1">
                    <mxGeometry x="870" y="590" width="100" height="30" as="geometry"/>
                </mxCell>
                <mxCell id="tj0ak_F37GdJPDLlOLxo-324" value="&lt;span&gt;Low utilization due to channel padding&lt;/span&gt;" style="text;html=1;strokeColor=none;fillColor=none;align=center;verticalAlign=middle;whiteSpace=wrap;rounded=0;fontStyle=1" parent="1" vertex="1">
                    <mxGeometry x="880" y="343" width="90" height="30" as="geometry"/>
                </mxCell>
                <mxCell id="tj0ak_F37GdJPDLlOLxo-325" value="&lt;span&gt;Low utilization due to filter padding&lt;/span&gt;" style="text;html=1;strokeColor=none;fillColor=none;align=center;verticalAlign=middle;whiteSpace=wrap;rounded=0;fontStyle=1" parent="1" vertex="1">
                    <mxGeometry x="185" y="484" width="90" height="30" as="geometry"/>
                </mxCell>
                <mxCell id="tj0ak_F37GdJPDLlOLxo-326" value="" style="shape=curlyBracket;whiteSpace=wrap;html=1;rounded=1;strokeColor=#000000;strokeWidth=3;fillColor=none;rotation=0;fontStyle=1" parent="1" vertex="1">
                    <mxGeometry x="288" y="616.98" width="20" height="139.53" as="geometry"/>
                </mxCell>
                <mxCell id="tj0ak_F37GdJPDLlOLxo-327" value="Weight Tensor" style="text;html=1;strokeColor=none;fillColor=none;align=center;verticalAlign=middle;whiteSpace=wrap;rounded=0;fontStyle=1" parent="1" vertex="1">
                    <mxGeometry x="238.43" y="672.7599999999999" width="34.14" height="30" as="geometry"/>
                </mxCell>
            </root>
        </mxGraphModel>
    </diagram>
</mxfile>